<?xml version="1.0" standalone="no"?>
<!DOCTYPE svg PUBLIC "-//W3C//DTD SVG 20010904//EN"
 "http://www.w3.org/TR/2001/REC-SVG-20010904/DTD/svg10.dtd">
<svg version="1.0" xmlns="http://www.w3.org/2000/svg"
 width="1600.000000pt" height="900.000000pt" viewBox="0 0 1600.000000 900.000000"
 preserveAspectRatio="xMidYMid meet">
<metadata>
Created by potrace 1.16, written by Peter Selinger 2001-2019
</metadata>
<g transform="translate(0.000000,900.000000) scale(0.100000,-0.100000)"
fill="#000000" stroke="none">
<path d="M10060 8985 c8 -10 30 -15 65 -15 40 0 56 -5 71 -21 16 -17 16 -22 4
-30 -24 -15 7 -29 68 -29 28 0 52 -4 52 -10 0 -5 24 -10 54 -10 49 0 57 -3 76
-30 18 -26 28 -30 66 -30 31 0 44 -4 44 -14 0 -8 6 -17 13 -20 10 -5 10 -7 0
-12 -26 -12 -12 -24 27 -24 22 0 40 -4 40 -10 0 -5 7 -10 16 -10 9 0 18 -9 21
-20 4 -16 14 -20 48 -20 24 0 48 -6 54 -14 6 -7 35 -16 64 -19 28 -2 70 -13
92 -22 38 -18 39 -19 15 -25 -38 -9 -13 -17 84 -25 79 -6 93 -10 115 -34 47
-47 60 -55 75 -42 11 9 16 9 22 0 4 -7 2 -15 -4 -17 -7 -2 -12 -11 -12 -20 0
-12 3 -13 12 -4 17 17 31 15 24 -3 -3 -8 -2 -15 3 -15 13 0 20 54 9 68 -7 8
-7 12 0 12 7 0 12 34 14 93 l3 92 38 3 c21 2 45 -2 52 -8 18 -15 8 -40 -16
-40 -15 0 -19 -7 -19 -35 0 -29 4 -35 21 -35 15 0 20 -5 17 -22 -2 -16 -9 -22
-20 -20 -15 2 -18 -5 -18 -43 0 -41 2 -46 19 -40 28 8 40 -33 16 -51 -10 -8
-22 -11 -28 -7 -5 3 -8 0 -5 -8 3 -8 11 -14 19 -14 8 0 16 -4 19 -10 9 -19 35
-45 45 -45 5 0 34 -18 63 -40 29 -22 63 -40 77 -40 13 0 27 -4 30 -10 3 -5 -2
-10 -12 -10 -12 0 1 -17 42 -55 96 -86 97 -86 149 -32 24 26 51 47 59 47 26 0
47 -12 47 -26 0 -19 34 -36 47 -23 6 6 21 7 35 4 24 -6 25 -10 20 -53 -3 -26
-9 -49 -14 -51 -5 -1 -14 -10 -21 -18 -42 -53 -77 -83 -96 -83 -23 0 -29 -15
-8 -23 10 -3 10 -9 0 -26 -15 -25 -17 -61 -3 -61 18 0 10 -22 -10 -27 -16 -4
-18 -8 -9 -19 9 -11 7 -14 -10 -14 -14 0 -21 -6 -21 -18 0 -10 -5 -23 -11 -29
-16 -16 -20 -122 -8 -207 12 -85 65 -192 129 -256 24 -25 56 -65 70 -90 14
-25 38 -51 53 -58 16 -8 31 -20 34 -28 3 -9 20 -14 48 -14 35 0 46 -5 59 -25
9 -14 14 -30 11 -35 -9 -14 35 -79 49 -74 7 3 18 16 25 30 15 33 14 39 -4 24
-17 -15 -19 -7 -5 21 6 11 21 19 36 19 14 0 34 5 45 11 16 8 26 7 44 -5 14 -9
40 -16 59 -16 19 0 38 -5 41 -10 4 -6 15 -8 26 -5 11 4 19 2 19 -4 0 -6 15
-11 34 -11 60 0 66 6 66 72 0 43 5 68 19 86 10 15 20 36 23 47 2 13 11 20 26
19 25 -1 19 11 -30 58 -15 15 -28 36 -28 46 0 20 34 71 57 85 7 4 23 18 36 31
12 13 42 34 67 47 25 13 52 29 60 35 30 24 128 71 159 77 18 4 45 15 59 25 15
11 44 22 65 25 32 5 43 1 73 -25 29 -26 34 -36 28 -57 -4 -14 -6 -34 -6 -43 0
-10 -5 -19 -11 -19 -7 -1 -19 -2 -27 -3 -17 -1 -21 -31 -3 -31 20 0 24 -12 18
-48 -5 -25 -11 -34 -21 -30 -10 3 -14 -2 -14 -19 0 -14 -11 -38 -25 -54 -14
-16 -25 -32 -25 -37 0 -4 -11 -12 -25 -19 -13 -6 -22 -14 -20 -19 7 -10 -23
-39 -40 -39 -8 0 -29 -13 -47 -30 -18 -16 -36 -30 -40 -30 -5 0 -8 -7 -8 -15
0 -9 -8 -18 -17 -22 -64 -23 -128 -92 -102 -109 5 -3 9 -13 9 -23 0 -9 11 -27
25 -39 14 -12 25 -30 25 -41 0 -10 7 -21 15 -25 8 -3 15 -17 15 -32 0 -17 6
-28 20 -31 23 -6 29 -23 27 -81 -2 -36 1 -42 19 -42 28 0 61 -25 45 -34 -32
-20 -56 -155 -31 -171 6 -3 10 -13 10 -21 0 -8 -4 -14 -10 -14 -5 0 -10 9 -10
20 0 27 -26 26 -33 -2 -7 -26 -1 -38 19 -38 18 0 18 -2 -7 -57 -25 -54 -27
-137 -5 -162 20 -22 26 -97 7 -93 -10 2 -12 -5 -8 -33 4 -22 2 -35 -5 -35 -6
0 2 -12 17 -27 24 -24 26 -33 21 -70 -6 -44 0 -52 23 -30 11 10 13 9 7 -6 -3
-10 -6 -26 -6 -34 0 -12 -3 -13 -13 -4 -18 14 -27 4 -27 -31 0 -16 -4 -27 -8
-24 -18 11 -52 -25 -52 -56 0 -21 -6 -31 -20 -35 -20 -5 -31 -43 -27 -93 2
-20 -2 -25 -20 -23 -19 2 -23 -2 -23 -26 0 -21 6 -32 20 -36 11 -3 20 -13 20
-20 0 -8 11 -26 25 -41 14 -15 25 -35 25 -45 0 -10 6 -24 13 -31 22 -21 37
-55 37 -80 0 -31 29 -140 39 -151 5 -5 25 3 45 17 57 38 84 18 64 -48 -7 -21
-20 -38 -32 -42 -12 -4 -40 -26 -63 -49 l-43 -43 16 -45 c8 -25 28 -58 44 -73
16 -16 30 -35 30 -41 0 -7 4 -13 9 -13 6 0 34 -22 63 -50 29 -27 55 -50 58
-51 3 0 17 -2 33 -4 15 -2 51 -15 80 -28 28 -14 74 -28 101 -32 59 -8 96 -41
96 -84 0 -16 5 -33 10 -36 6 -3 10 -13 10 -22 0 -9 10 -27 22 -40 19 -21 21
-27 9 -44 -12 -20 -11 -21 20 -14 27 6 31 5 26 -10 -8 -18 18 -76 39 -88 21
-12 17 -35 -11 -59 -23 -20 -24 -23 -9 -39 9 -10 13 -23 9 -28 -3 -6 1 -11 9
-11 9 0 16 6 16 12 0 7 6 4 13 -7 8 -11 14 -53 15 -95 2 -67 0 -77 -20 -92
-31 -23 -22 -27 34 -19 52 8 67 -4 48 -40 -7 -13 -7 -25 0 -38 8 -16 6 -23 -8
-33 -12 -9 -17 -26 -16 -58 1 -27 -5 -52 -14 -62 -12 -14 -12 -20 -2 -33 10
-13 10 -19 -3 -33 -13 -14 -14 -24 -3 -62 7 -25 19 -58 26 -73 12 -24 12 -30
-1 -37 -11 -8 -12 -13 -1 -30 7 -11 8 -20 2 -20 -21 0 -3 -46 25 -64 28 -17
28 -19 11 -32 -11 -7 -24 -15 -30 -17 -7 -3 -5 -15 7 -37 14 -25 15 -36 6 -47
-10 -11 -8 -18 9 -33 12 -11 26 -20 33 -20 8 0 8 -4 -1 -15 -6 -8 -8 -20 -4
-27 14 -22 12 -88 -3 -88 -7 0 -13 -4 -13 -10 0 -5 7 -10 15 -10 8 0 15 -9 15
-20 0 -11 8 -34 18 -52 14 -24 18 -48 16 -88 -5 -82 -11 -112 -25 -121 -6 -4
-9 -14 -6 -23 4 -9 1 -16 -6 -16 -8 0 -7 -4 3 -10 12 -7 9 -14 -19 -40 -35
-30 -34 -34 7 -30 26 2 30 -21 7 -40 -18 -15 -20 -40 -4 -40 7 0 18 8 25 18
13 15 14 14 14 -13 0 -16 1 -41 1 -54 0 -15 7 -25 20 -28 23 -6 22 -38 -1 -38
-19 0 -23 -21 -12 -70 6 -33 13 -40 40 -47 19 -5 30 -13 26 -19 -4 -6 0 -15 7
-20 12 -8 12 -10 0 -18 -7 -5 -11 -13 -7 -19 9 -15 -21 -35 -43 -29 -17 4 -19
1 -14 -32 4 -20 13 -41 22 -48 14 -11 14 -13 -3 -26 -10 -8 -16 -19 -12 -25 5
-8 2 -10 -8 -6 -11 4 -16 0 -16 -14 0 -12 5 -24 10 -27 6 -3 10 -15 10 -26 0
-10 4 -19 9 -19 5 0 12 -11 15 -24 3 -14 16 -26 29 -30 32 -8 37 -66 6 -66
-10 0 -19 5 -19 11 0 7 -10 0 -21 -15 -28 -35 -13 -56 26 -38 40 18 51 14 22
-8 -14 -11 -36 -20 -48 -20 -22 0 -21 -2 11 -28 25 -22 32 -33 26 -48 -7 -18
-8 -18 -17 -1 -15 25 -47 22 -55 -7 -4 -18 -11 -22 -26 -18 -17 4 -19 2 -13
-19 4 -13 11 -28 16 -33 5 -6 9 -18 9 -28 0 -10 8 -18 18 -19 13 0 14 -2 2 -6
-8 -4 -21 -12 -28 -20 -16 -15 -48 -17 -57 -3 -9 15 -45 12 -45 -4 0 -7 10
-16 21 -19 22 -6 22 -6 -5 -37 l-26 -32 20 -25 c12 -16 17 -34 15 -51 -3 -15
-7 -58 -8 -97 -3 -61 -6 -70 -23 -71 -10 0 -31 -3 -46 -7 -25 -7 -27 -10 -17
-34 7 -19 7 -29 0 -31 -19 -6 -12 -40 9 -47 16 -5 20 -15 20 -46 0 -38 1 -39
35 -39 26 0 35 -4 35 -16 0 -12 -7 -15 -25 -12 -17 4 -25 1 -25 -9 0 -8 -6
-21 -12 -28 -39 -43 -40 -46 -28 -60 10 -13 8 -15 -18 -15 -24 0 -32 -6 -40
-30 -10 -27 -13 -28 -41 -20 -32 9 -41 0 -18 -18 7 -6 24 -8 36 -5 18 4 22 2
19 -8 -3 -8 -11 -14 -19 -14 -8 0 -17 -4 -21 -10 -4 -5 -15 -10 -25 -10 -13 0
-18 -8 -18 -27 0 -29 -40 -82 -55 -73 -18 11 -10 -12 10 -30 11 -10 17 -22 14
-26 -9 -15 -24 -10 -24 7 0 19 -32 12 -70 -15 -41 -30 -33 -53 12 -36 25 10
35 -21 14 -44 -15 -16 -14 -19 9 -39 15 -13 25 -33 25 -48 0 -14 4 -23 10 -19
6 4 10 -6 10 -24 0 -16 5 -31 11 -33 7 -2 4 -17 -7 -42 -18 -36 -21 -38 -56
-33 -21 3 -38 1 -38 -4 0 -4 -7 -6 -16 -2 -15 5 -15 3 0 -24 8 -17 13 -33 9
-36 -3 -4 6 -12 20 -18 19 -9 26 -19 25 -35 -1 -13 -6 -24 -10 -24 -11 0 -7
-73 4 -87 5 -7 7 -17 3 -23 -3 -5 0 -19 8 -31 8 -11 13 -29 10 -40 -5 -19 14
-19 1291 -19 l1296 0 0 1304 c0 1303 0 1304 -20 1299 -11 -3 -23 -10 -26 -15
-7 -11 -34 10 -34 26 0 8 11 11 31 8 22 -3 30 -1 25 7 -4 6 -15 11 -26 11 -20
0 -30 19 -30 56 0 21 -3 23 -19 14 -25 -13 -74 -13 -66 0 3 6 15 10 26 10 16
0 19 5 14 20 -3 11 0 36 7 57 9 26 10 37 2 40 -6 2 -9 15 -6 28 4 23 1 25 -32
25 -27 0 -34 3 -30 15 4 8 16 15 29 15 12 0 29 7 36 16 11 14 10 18 -6 30 -11
7 -26 18 -32 24 -16 13 -17 90 -2 90 6 0 1 11 -12 25 -14 14 -35 25 -51 25
-20 0 -28 5 -27 18 0 9 3 12 6 5 3 -10 9 -10 24 0 30 18 23 29 -16 23 -30 -5
-35 -3 -35 13 0 10 7 24 15 31 17 14 20 40 6 40 -5 0 -11 12 -13 28 -2 21 -9
28 -30 30 -17 2 -28 -1 -28 -9 0 -6 -11 0 -26 16 -30 32 -28 60 4 59 17 0 22
5 22 23 0 25 -3 27 -28 14 -12 -6 -23 -5 -36 4 -27 20 -10 38 30 32 19 -3 34
-3 34 -1 0 16 -55 73 -75 78 -27 7 -43 42 -26 59 9 9 14 8 21 -3 9 -13 11 -13
19 -1 10 15 4 41 -9 41 -4 0 -6 15 -5 34 3 27 -1 35 -16 39 -14 4 -19 0 -19
-17 0 -14 -10 -28 -25 -36 -30 -16 -40 -9 -26 18 7 12 7 22 0 29 -12 12 -1 43
15 43 7 0 16 -4 22 -9 5 -6 19 -4 34 4 l25 14 -25 2 c-14 1 -31 1 -37 0 -7 -1
-13 5 -13 13 0 9 -15 18 -40 23 l-40 8 15 29 c18 34 19 56 3 56 -9 0 -9 3 0
12 9 9 15 9 24 0 7 -7 18 -12 26 -12 30 0 -11 30 -49 36 -40 7 -53 29 -24 40
22 9 18 28 -7 39 -18 8 -22 17 -20 43 1 17 -2 32 -8 32 -17 0 -11 39 10 60 24
24 25 30 6 30 -9 0 -16 12 -18 27 -2 20 -9 29 -25 31 -18 3 -23 10 -23 33 0
16 -5 29 -12 30 -7 0 -3 5 10 11 18 9 22 19 22 60 0 57 -15 87 -42 80 -14 -3
-17 -1 -11 14 3 11 13 29 20 41 12 19 12 23 -2 30 -9 5 -17 20 -18 34 -1 13
-12 38 -24 56 -13 17 -23 41 -23 52 0 15 -6 21 -23 21 -28 0 -73 29 -45 30 26
0 34 39 11 55 -10 8 -21 15 -25 15 -5 0 -8 11 -8 25 0 14 -6 25 -12 25 -8 1
-5 7 6 15 17 13 17 15 2 30 -9 9 -16 20 -16 24 0 4 -10 7 -21 7 -31 -1 -35 22
-7 33 19 8 20 10 4 10 -14 1 -17 7 -13 27 4 21 1 25 -14 21 -19 -5 -38 12 -59
53 -22 41 -17 62 26 106 23 23 62 69 88 103 26 34 51 61 56 61 4 0 21 14 37
30 31 33 43 37 43 16 0 -8 13 -28 30 -46 29 -31 30 -31 55 -13 35 25 31 68 -7
68 -35 0 -48 14 -20 22 34 8 26 49 -8 45 -63 -8 -65 -7 -68 16 -2 12 -9 22
-15 22 -7 0 -22 8 -35 18 -21 16 -22 21 -10 46 11 26 10 30 -10 44 -17 11 -20
18 -11 33 5 11 7 28 4 38 -3 10 -1 38 4 62 6 28 7 45 1 47 -19 7 -10 28 18 44
27 16 28 16 48 -15 33 -52 47 -115 35 -166 -6 -29 -6 -51 0 -63 5 -10 9 -24 7
-31 -1 -6 3 -22 10 -35 7 -12 10 -27 7 -32 -3 -6 2 -10 12 -11 10 0 44 -1 75
-2 47 -2 62 -7 85 -29 15 -15 39 -29 53 -33 14 -3 50 -23 80 -43 64 -44 85
-89 55 -122 -16 -18 -16 -21 1 -59 11 -23 26 -41 35 -41 9 0 20 -7 23 -16 5
-12 17 -15 56 -12 40 2 50 0 53 -14 3 -10 -1 -22 -8 -28 -8 -7 -13 -27 -11
-48 2 -37 2 -37 51 -40 57 -4 82 16 64 50 -6 10 -7 29 -3 41 4 12 7 30 5 40
-1 9 3 17 8 17 8 0 11 155 11 504 l0 504 -112 55 c-62 30 -122 58 -133 62 -73
27 -481 42 -574 21 -58 -13 -75 -30 -42 -41 21 -6 26 -24 22 -77 -1 -14 7 -53
17 -86 16 -47 18 -69 11 -107 -14 -76 -32 -88 -85 -60 -16 8 -37 15 -47 15
-26 0 -31 25 -12 62 10 20 18 63 20 108 2 41 11 94 20 117 16 41 16 43 -4 72
-12 16 -21 36 -21 44 0 9 -4 19 -10 22 -5 3 -10 16 -10 27 0 40 -47 106 -86
118 -19 7 -37 10 -39 8 -3 -2 -7 -47 -10 -99 -5 -94 -17 -167 -35 -204 -5 -11
-21 -55 -34 -97 -33 -100 -64 -165 -82 -172 -8 -3 -14 -11 -14 -17 0 -24 -97
-111 -156 -139 -68 -33 -81 -35 -139 -17 -43 13 -49 34 -19 64 21 21 28 64 15
85 -7 11 -9 33 -5 55 6 33 5 35 -15 28 -17 -5 -21 -2 -21 15 0 16 4 19 16 12
8 -4 29 -6 45 -4 26 4 30 8 26 28 -2 13 1 26 7 29 7 3 7 7 -2 11 -10 5 -8 10
7 21 24 16 26 40 9 78 -13 29 -5 43 16 26 27 -23 37 -2 14 29 -16 22 -18 33
-10 42 14 17 10 94 -6 110 -14 14 -16 38 -2 38 5 0 14 9 20 21 9 16 8 24 -4
38 -9 10 -16 35 -16 59 0 41 15 57 26 27 9 -22 47 -18 62 5 17 27 32 25 32 -4
0 -15 -7 -26 -17 -28 -15 -3 -14 -5 5 -10 12 -3 20 -3 17 2 -6 10 39 40 60 40
9 0 18 -7 22 -16 6 -15 8 -15 20 2 7 10 13 26 13 37 0 10 9 21 20 24 25 7 26
19 1 33 -29 15 -61 12 -61 -5 0 -8 5 -15 11 -15 6 0 4 -7 -5 -15 -18 -18 -22
-19 -24 -2 -1 6 -3 27 -5 44 -3 31 -1 32 26 30 17 -1 32 4 34 11 3 6 -3 12
-12 12 -9 0 -13 5 -10 10 3 6 15 10 25 10 10 0 21 4 25 10 9 14 -17 49 -32 43
-7 -3 -10 -9 -7 -14 8 -13 -10 -11 -24 3 -22 22 -14 48 14 48 16 0 24 5 22 12
-3 7 1 19 9 26 20 20 17 54 -4 50 -22 -4 -31 46 -13 68 10 11 8 16 -11 23 -13
5 -19 10 -13 10 7 1 21 21 32 45 20 43 20 77 -1 104 -7 8 -5 12 6 12 10 0 13
6 10 20 -3 11 2 32 12 46 13 20 15 32 7 48 -6 14 -7 53 -1 108 5 48 9 102 11
120 1 18 5 38 8 43 4 6 11 28 15 50 9 52 23 78 40 71 8 -3 15 0 18 7 3 9 10 9
31 -1 15 -6 49 -12 76 -12 28 0 50 -4 50 -10 0 -6 27 -10 60 -10 35 0 70 -6
83 -14 12 -8 54 -17 92 -21 90 -8 191 -35 173 -46 -23 -14 -1 -20 86 -22 72
-2 86 -5 86 -18 0 -23 27 -31 52 -18 27 15 118 6 132 -13 6 -8 29 -15 51 -16
22 0 64 -4 93 -8 l52 -6 0 771 0 771 -2976 0 c-2645 0 -2975 -2 -2964 -15z
m2950 -313 c16 -46 17 -47 61 -50 76 -5 79 -10 29 -52 l-44 -38 17 -53 c17
-55 11 -81 -14 -57 -8 7 -27 23 -44 35 l-30 21 -30 -21 c-16 -12 -36 -27 -43
-34 -32 -31 -40 -11 -17 44 23 53 19 68 -26 104 -22 17 -37 35 -32 40 4 4 30
9 57 11 47 3 50 4 63 43 22 65 23 68 30 61 4 -3 14 -28 23 -54z m701 -14 c10
-37 11 -38 57 -38 73 0 79 -11 27 -50 -47 -35 -50 -41 -36 -68 4 -9 11 -32 14
-49 8 -40 -4 -42 -47 -10 -49 37 -52 37 -72 18 -11 -10 -33 -26 -48 -37 l-29
-18 7 27 c3 15 9 46 12 70 5 40 3 43 -37 70 -49 33 -43 45 25 49 l49 3 20 54
c19 49 22 52 34 35 7 -10 18 -35 24 -56z m-360 15 c15 -47 16 -48 59 -51 77
-5 80 -10 31 -52 l-45 -39 13 -41 c7 -23 15 -48 18 -56 8 -23 -25 -16 -61 11
-42 32 -49 32 -97 -7 -21 -17 -42 -29 -45 -25 -3 3 2 32 12 63 l18 57 -44 37
c-48 41 -44 52 20 48 46 -2 52 2 70 60 7 23 18 42 25 42 6 0 18 -21 26 -47z
m-1828 14 c11 -18 4 -70 -11 -75 -7 -2 -16 5 -19 17 -3 12 -9 21 -14 21 -18 0
-8 -38 21 -76 20 -27 30 -51 30 -77 0 -57 -14 -77 -55 -77 -24 0 -38 6 -45 19
-15 30 -13 71 5 71 8 0 18 1 23 2 4 1 10 -11 13 -28 l7 -29 1 33 c1 21 -9 46
-29 74 -39 53 -42 119 -7 136 25 12 68 6 80 -11z m145 -4 c3 -18 -2 -23 -18
-23 -20 0 -21 -4 -19 -117 l2 -118 -27 -3 -26 -3 0 117 c0 97 -3 119 -17 129
-32 23 -9 43 49 41 47 -1 53 -4 56 -23z m119 12 c20 -14 22 -24 22 -145 l0
-130 -24 0 c-24 0 -25 3 -25 59 0 33 -4 62 -9 65 -14 9 -22 -39 -15 -84 6 -40
6 -40 -25 -40 l-31 0 0 138 c0 76 3 142 7 145 12 13 78 7 100 -8z m148 -10 c0
-13 -8 -21 -22 -23 -19 -3 -23 -10 -23 -38 0 -30 3 -34 25 -34 33 0 35 -37 3
-42 -19 -2 -24 -10 -26 -45 -3 -41 -2 -43 23 -43 20 0 26 -4 23 -17 -3 -14
-14 -18 -51 -18 l-48 0 0 138 c0 75 1 139 1 143 0 3 21 4 48 2 39 -3 47 -6 47
-23z m99 -10 c5 -16 15 -46 22 -65 14 -35 14 -34 12 30 -3 63 -2 65 22 65 l25
0 0 -140 c0 -136 -1 -140 -22 -143 -25 -4 -38 15 -48 71 -10 51 -25 37 -25
-24 0 -46 -2 -49 -25 -49 l-25 0 0 146 0 145 27 -3 c21 -2 30 -11 37 -33z
m208 18 c15 -14 18 -32 18 -133 0 -129 -5 -140 -58 -140 -54 0 -61 19 -62 147
0 104 1 113 22 127 29 21 57 20 80 -1z m133 7 c23 -9 26 -15 23 -47 -3 -33 -6
-38 -25 -36 -29 3 -29 -5 2 -47 34 -46 36 -123 2 -144 -43 -29 -87 4 -87 65 0
13 7 19 24 19 19 0 26 -6 29 -27 4 -26 4 -25 6 5 1 23 -8 45 -26 69 -35 46
-39 116 -9 139 24 17 27 17 61 4z m-14 -450 c11 0 19 -4 19 -10 0 -5 -12 -10
-26 -10 -17 0 -28 -6 -31 -20 -3 -11 -9 -20 -14 -20 -5 0 -9 -11 -9 -24 0 -15
-7 -26 -20 -29 -13 -3 -18 -11 -14 -21 4 -11 -2 -17 -23 -22 -15 -4 -41 -17
-58 -29 -55 -41 -71 -46 -102 -33 -15 7 -34 18 -41 25 -7 7 -20 13 -28 13 -21
0 -17 18 12 45 24 22 24 24 7 34 -15 10 -11 11 22 9 35 -3 40 0 43 20 2 14 10
22 24 22 17 0 18 2 8 15 -10 12 -42 15 -168 15 -102 0 -153 3 -146 10 9 9 431
20 498 13 16 -2 37 -3 47 -3z m994 -10 c-4 -6 -175 -10 -481 -10 -309 0 -474
3 -474 10 0 7 167 10 481 10 317 0 478 -3 474 -10z m-431 -506 c3 -8 1 -14 -4
-14 -6 0 -10 -6 -10 -14 0 -8 -7 -16 -15 -20 -8 -3 -15 -17 -15 -31 0 -15 -6
-25 -14 -25 -8 0 -24 -13 -36 -30 -13 -18 -30 -30 -44 -30 -13 0 -31 -9 -41
-20 -10 -11 -23 -20 -30 -20 -7 0 -20 -9 -30 -20 -10 -11 -29 -20 -42 -20 -12
0 -23 -6 -23 -13 0 -13 -53 -37 -83 -37 -24 0 -21 28 7 64 31 41 217 186 286
223 56 30 84 32 94 7z m397 -2656 c27 -15 39 -28 39 -44 0 -13 5 -26 10 -29
20 -13 10 -45 -17 -56 -24 -9 -30 -7 -49 16 -14 17 -29 26 -45 24 -62 -6 -167
2 -183 14 -14 10 -15 17 -6 41 17 47 37 55 129 56 67 0 91 -4 122 -22z"/>
<path d="M7683 8481 c-34 -9 -65 -19 -69 -23 -4 -5 -17 -8 -28 -8 -20 0 -144
-66 -176 -95 -18 -15 -79 -25 -86 -13 -11 17 -52 7 -68 -17 -29 -43 -86 -56
-86 -19 0 19 -32 34 -72 34 -38 0 -58 -15 -58 -43 0 -11 -8 -26 -17 -33 -16
-12 -14 -13 20 -14 33 0 37 3 37 25 0 19 5 25 21 25 18 0 20 -4 15 -25 -4 -15
-2 -25 4 -25 6 0 8 -4 5 -10 -3 -5 -40 -10 -83 -11 -134 -2 -146 -4 -191 -27
-39 -21 -45 -22 -53 -8 -13 24 -24 20 -38 -14 -22 -52 -120 -64 -120 -14 0 8
-4 14 -9 14 -14 0 -28 -23 -36 -58 -5 -22 -21 -43 -53 -67 -25 -20 -54 -49
-64 -65 -10 -17 -24 -30 -31 -30 -7 0 -31 -13 -53 -30 -43 -33 -72 -38 -80
-15 -14 36 -52 -2 -46 -46 2 -8 -6 -24 -17 -34 -19 -16 -21 -16 -27 -1 -8 20
-34 21 -34 2 0 -23 -31 -48 -52 -43 -25 7 -77 -11 -104 -34 -11 -11 -25 -19
-31 -19 -15 0 -63 -58 -63 -75 0 -8 -6 -18 -12 -22 -18 -11 -58 -70 -58 -84 0
-22 -31 -143 -43 -170 -30 -65 -187 -228 -258 -265 -50 -27 -66 -48 -122 -159
-43 -87 -45 -94 -52 -205 -4 -79 -11 -120 -21 -130 -12 -12 -14 -11 -14 12 0
35 -18 45 -40 22 -17 -19 -60 -137 -60 -166 0 -9 7 -21 15 -28 12 -10 18 -10
31 1 14 11 21 8 52 -25 27 -31 44 -40 78 -44 43 -5 54 -17 54 -67 0 -31 -85
-95 -125 -95 -8 0 -34 -13 -57 -30 -22 -16 -47 -30 -55 -30 -8 0 -13 -11 -13
-28 0 -21 15 -44 55 -87 30 -32 62 -73 71 -91 19 -39 27 -41 53 -15 19 19 20
19 33 -1 11 -16 19 -19 34 -13 10 5 24 10 29 10 6 1 18 5 28 10 24 10 29 3 35
-53 3 -34 0 -52 -9 -57 -23 -15 -94 -24 -106 -13 -19 16 -31 1 -39 -47 -7 -48
-17 -56 -33 -26 -14 25 -55 17 -72 -15 -13 -24 -29 -32 -29 -14 0 6 -6 10 -14
10 -8 0 -19 -20 -27 -47 -7 -27 -28 -67 -46 -91 -41 -54 -44 -102 -8 -154 l25
-36 -17 -67 c-15 -63 -15 -73 1 -157 10 -56 13 -94 8 -101 -5 -7 -13 -29 -16
-50 -6 -31 -11 -38 -25 -34 -10 2 -26 -3 -34 -12 -21 -22 -45 -41 -52 -41 -3
0 -5 10 -5 23 0 16 -11 27 -39 40 -20 9 -42 17 -48 17 -5 0 -25 14 -43 31 -25
25 -34 28 -41 18 -5 -8 -9 -17 -9 -21 0 -5 -11 -8 -25 -8 -24 0 -23 -2 16 -40
23 -22 45 -40 50 -40 5 0 9 -10 9 -22 0 -12 3 -19 6 -15 4 3 15 -4 25 -16 l19
-22 24 27 c15 17 28 24 31 18 4 -6 15 -8 25 -5 38 12 56 -13 57 -78 3 -77 21
-95 173 -172 21 -10 27 -40 10 -50 -5 -3 -17 -22 -26 -41 -9 -19 -30 -42 -45
-50 -35 -18 -37 -47 -9 -122 25 -66 25 -95 -1 -149 -18 -37 -64 -83 -83 -83
-11 0 -6 46 5 57 13 13 22 160 11 167 -5 3 -12 2 -18 -2 -13 -9 -39 -74 -36
-88 1 -7 -4 -14 -11 -17 -18 -7 -15 -40 12 -127 23 -71 23 -75 6 -85 -10 -5
-26 -17 -35 -26 -10 -9 -22 -18 -28 -20 -15 -6 -81 -59 -113 -91 -15 -16 -34
-28 -42 -28 -28 0 -47 -12 -47 -30 0 -10 6 -20 13 -23 6 -2 9 -7 6 -11 -3 -3
-19 8 -36 24 -27 26 -31 39 -38 107 -12 130 -11 151 12 181 27 37 43 89 52
180 7 60 13 78 36 102 l28 30 -19 41 c-12 28 -33 52 -62 70 -38 24 -47 26 -77
16 -32 -9 -37 -8 -67 21 -17 18 -35 32 -39 32 -4 0 -12 14 -18 32 -10 27 -9
36 7 58 25 33 35 67 24 74 -5 3 -7 17 -4 31 7 38 37 29 35 -10 -7 -137 0 -165
43 -165 20 0 24 5 24 28 0 15 4 33 9 41 10 16 -12 57 -42 79 -15 11 -17 22
-11 60 4 28 14 52 25 60 31 21 22 40 -20 47 -44 7 -71 38 -71 79 0 29 -21 37
-80 34 -19 -2 -51 1 -71 5 -36 7 -36 7 -42 -32 -6 -47 -36 -92 -57 -86 -75 19
-147 10 -110 -15 13 -8 12 -10 -2 -10 -11 0 -18 -8 -18 -21 0 -11 -5 -17 -10
-14 -6 4 -8 11 -5 16 11 16 -5 31 -20 19 -9 -8 -15 -8 -20 0 -3 5 -4 10 -1 10
2 0 -13 18 -35 40 -21 21 -39 44 -39 49 0 5 -13 19 -28 30 -16 11 -40 36 -53
55 -27 40 -39 45 -39 17 0 -10 -7 -22 -16 -25 -19 -7 -17 -8 -33 22 -6 12 -18
22 -26 22 -8 0 -15 9 -15 19 0 11 -3 27 -6 36 -6 16 -4 16 27 -1 19 -9 39 -24
46 -33 11 -15 12 -15 13 0 0 9 -18 41 -40 72 -22 30 -40 59 -40 63 0 12 -74
85 -104 100 -16 9 -38 13 -53 9 -42 -10 -56 23 -60 134 -3 110 16 202 50 241
12 14 31 43 42 64 11 22 35 48 53 59 34 20 43 55 18 76 -17 14 -76 3 -83 -16
-9 -23 -51 -7 -89 34 -22 23 -39 33 -50 29 -8 -3 -22 -6 -30 -6 -8 0 -22 -16
-31 -36 -17 -34 -17 -36 2 -47 30 -18 77 -24 102 -13 34 14 73 -7 73 -39 0
-21 -8 -29 -37 -42 -50 -20 -137 -12 -167 16 -12 12 -27 21 -34 21 -20 0 -42
-44 -42 -86 0 -22 -7 -63 -15 -89 -8 -27 -12 -52 -10 -56 3 -3 -4 -17 -14 -30
-26 -34 -35 -68 -22 -83 7 -8 46 -22 89 -31 42 -10 82 -24 88 -31 6 -8 19 -14
29 -14 17 0 51 -36 70 -75 6 -11 20 -24 33 -30 12 -5 25 -18 28 -27 3 -11 15
-18 28 -18 28 0 50 -24 42 -45 -6 -18 -36 -9 -36 11 0 8 -9 14 -20 14 -10 0
-24 9 -30 20 -6 11 -19 20 -29 20 -11 0 -21 7 -25 15 -3 8 -14 15 -24 15 -11
0 -25 7 -32 15 -7 9 -29 15 -51 15 -21 0 -50 5 -64 12 -21 9 -28 9 -34 -1 -6
-9 -11 -10 -15 -2 -4 6 -18 11 -32 11 -13 0 -24 6 -24 13 0 16 -104 17 -120 1
-12 -12 1 -57 19 -69 17 -10 13 -25 -6 -25 -9 0 -33 5 -52 11 -20 7 -42 13
-49 15 -10 3 -10 8 -2 25 15 27 6 36 -16 15 -11 -12 -20 -14 -29 -6 -15 13
-48 -21 -50 -53 -1 -12 -7 -23 -13 -23 -7 -1 -17 -2 -22 -3 -6 0 -15 -12 -20
-26 -5 -14 -16 -25 -22 -24 -7 1 -21 1 -32 0 -15 -1 -16 -4 -6 -16 10 -12 10
-15 -3 -15 -9 0 -23 -10 -31 -22 -12 -17 -19 -20 -37 -11 -17 7 -32 5 -62 -9
-32 -16 -51 -18 -103 -13 l-64 7 0 -30 c0 -17 5 -34 10 -37 26 -16 2 -77 -35
-87 -11 -3 -28 -9 -37 -13 -15 -6 -18 -2 -18 23 0 48 -14 53 -198 68 -62 5
-75 10 -89 30 -12 20 -13 32 -4 71 21 90 18 241 -5 358 -13 62 -70 160 -118
203 -33 29 -56 55 -97 109 -33 44 -55 60 -141 103 -57 28 -112 60 -124 71 -11
10 -23 19 -27 19 -4 0 -33 13 -65 28 -32 16 -76 29 -96 30 -21 1 -45 7 -53 14
-13 11 -73 14 -138 7 -11 -2 -50 -2 -87 -1 -73 2 -65 -3 -171 110 -12 13 -38
32 -59 42 -20 11 -45 32 -57 47 -30 40 -35 45 -76 73 -21 14 -52 40 -70 58
-18 17 -38 32 -44 32 -6 0 -11 4 -11 9 0 21 -69 43 -150 48 -89 6 -133 21
-149 52 -15 27 -57 32 -77 9 -15 -16 -31 -18 -126 -16 -60 1 -111 5 -114 10
-3 4 -16 5 -29 2 -14 -3 -38 -1 -55 4 -27 10 -34 8 -73 -27 -24 -20 -65 -45
-90 -55 l-47 -18 0 -222 0 -223 56 10 c47 8 61 6 89 -9 18 -10 38 -28 44 -41
8 -17 18 -23 38 -22 16 0 42 -3 59 -9 17 -5 37 -6 45 -1 16 10 39 -7 39 -29 0
-13 3 -12 14 3 13 18 15 18 50 -17 20 -20 47 -39 61 -42 16 -4 30 -19 39 -41
10 -24 20 -33 30 -29 8 3 19 -3 26 -15 6 -12 8 -21 4 -21 -3 0 -1 -6 5 -14 8
-10 9 -16 1 -21 -5 -3 -10 1 -10 11 0 14 -7 16 -37 10 -21 -3 -45 -6 -54 -6
-9 0 -24 -16 -35 -35 -20 -38 -37 -43 -61 -19 -12 12 -27 14 -67 9 -41 -5 -55
-3 -65 9 -18 21 -28 20 -36 -4 -4 -14 -15 -20 -36 -20 -16 0 -29 -5 -29 -11 0
-6 -7 -4 -15 5 -8 8 -15 20 -15 26 0 16 -45 30 -96 30 l-44 0 0 -566 c0 -535
1 -566 18 -559 9 5 26 8 37 8 11 1 23 5 26 10 4 6 22 4 44 -3 58 -19 115 -21
115 -4 0 8 10 14 25 14 14 0 25 4 25 10 0 5 18 15 40 21 32 10 42 9 56 -2 16
-13 17 -11 12 14 -5 24 -3 28 13 24 12 -3 20 2 24 14 6 18 8 18 27 -6 l20 -26
-23 -25 c-12 -13 -17 -24 -11 -24 7 0 12 5 12 10 0 6 9 10 20 10 11 0 20 4 20
9 0 14 62 33 73 22 14 -14 -15 -51 -40 -51 -18 0 -23 -6 -23 -25 0 -15 -7 -28
-17 -32 -32 -12 -32 -27 -2 -45 37 -22 39 -22 39 1 0 13 9 21 30 26 34 7 34 8
18 34 -9 15 -9 26 2 48 7 15 14 36 15 45 2 26 14 33 27 20 25 -25 54 -12 49
21 -2 12 27 20 46 12 16 -6 16 -8 -4 -23 -15 -11 -20 -21 -14 -30 12 -20 46
-10 46 13 0 11 8 21 18 23 17 4 17 2 3 -26 -20 -40 -30 -45 -80 -44 l-41 1 -2
-48 c-2 -52 23 -91 48 -75 9 5 11 -1 6 -24 -5 -27 -2 -34 24 -53 34 -24 27
-49 -8 -30 -11 5 -28 10 -39 11 -10 0 -39 2 -63 5 -29 3 -48 -1 -58 -10 -18
-18 -50 -19 -56 -2 -2 6 -8 9 -12 5 -4 -4 0 -15 9 -24 9 -9 15 -21 13 -28 -6
-17 -32 -13 -32 5 0 9 -8 27 -17 40 -17 24 -17 24 -23 3 -8 -25 -53 -60 -89
-70 -29 -7 -32 -14 -14 -32 9 -9 9 -12 -1 -12 -9 0 -11 -8 -7 -23 7 -31 -7
-88 -17 -64 -9 24 -42 22 -44 -4 -3 -33 -22 -50 -44 -39 -10 6 -29 8 -43 4
-13 -3 -27 -1 -30 5 -4 6 -20 11 -36 11 -52 0 -82 23 -42 33 10 3 6 5 -10 6
-21 1 -28 6 -28 21 0 11 -7 20 -15 20 -13 0 -15 -45 -15 -345 l0 -346 33 3
c18 1 37 -1 43 -4 13 -9 183 21 214 37 29 15 49 1 48 -31 0 -11 2 -36 5 -56 4
-25 1 -41 -9 -49 -8 -6 -14 -18 -14 -25 0 -8 -3 -14 -7 -14 -5 0 -25 -16 -46
-36 -57 -54 -82 -57 -229 -29 l-38 8 0 -270 c0 -217 3 -278 15 -306 14 -35 12
-67 -6 -67 -13 0 -11 -96 3 -144 6 -22 20 -53 29 -67 10 -14 20 -37 23 -50 3
-13 8 -35 12 -48 6 -21 5 -23 -12 -16 -10 4 -29 10 -42 12 l-22 5 0 -601 c0
-330 2 -601 5 -601 3 0 10 10 16 23 5 12 24 45 42 73 18 28 41 66 52 84 31 52
65 85 127 122 32 19 66 46 78 60 11 14 30 28 43 32 20 5 87 82 87 101 0 3 22
29 49 56 27 27 66 75 87 107 22 31 51 72 66 90 16 18 28 39 28 46 0 8 13 25
28 38 15 13 31 30 34 38 15 38 70 100 88 100 13 0 22 9 26 25 3 14 10 25 15
25 13 0 11 67 -2 92 -14 27 -20 68 -23 158 -1 41 -5 81 -9 88 -11 16 -47 15
-71 -3 -14 -10 -32 -13 -60 -8 -49 7 -45 3 -56 42 -8 29 -7 32 25 45 18 8 57
16 84 18 57 4 70 16 91 83 7 22 16 44 21 50 12 12 11 79 -1 91 -9 9 7 49 56
137 9 16 19 65 24 110 4 45 16 125 26 177 10 52 18 107 18 123 1 15 4 27 9 27
4 0 7 15 7 33 0 19 -3 37 -7 41 -11 11 -12 100 -1 107 5 3 10 22 12 42 2 20 8
43 15 51 20 24 43 116 36 146 -4 18 0 42 9 62 8 18 20 56 27 83 7 28 16 55 20
61 5 6 6 25 3 42 -5 24 2 41 36 91 42 63 48 98 20 111 -8 4 -24 12 -36 17 -13
7 -26 7 -37 1 -13 -7 -19 -5 -23 7 -9 23 5 33 64 47 29 7 52 17 52 23 0 15 83
5 93 -11 4 -8 14 -14 22 -14 7 0 17 -9 20 -20 8 -27 19 -25 35 5 7 14 17 25
22 25 5 0 28 21 51 47 96 107 134 137 222 178 103 48 181 66 236 54 57 -13
191 -2 244 21 23 10 49 29 58 43 14 21 24 26 59 25 25 0 62 -10 87 -24 28 -15
50 -20 59 -15 8 5 23 6 33 4 11 -3 21 1 25 10 5 13 9 14 24 5 15 -9 25 -9 44
2 24 12 28 11 50 -13 13 -14 35 -28 48 -31 83 -15 282 -48 326 -53 49 -5 52
-4 52 16 0 26 48 131 59 131 5 0 11 14 15 30 3 17 12 30 21 30 17 0 30 -41 22
-70 -6 -24 1 -29 77 -55 53 -18 59 -23 62 -50 5 -49 -37 -82 -121 -92 -51 -6
-56 -10 -49 -37 4 -16 0 -25 -10 -29 -8 -3 -18 -22 -22 -41 -4 -22 -12 -36
-21 -36 -8 0 -37 -18 -63 -40 -47 -40 -137 -90 -161 -90 -16 0 -79 -68 -79
-87 0 -7 8 -17 18 -20 9 -4 31 -17 48 -30 17 -13 35 -23 40 -23 15 0 154 -140
154 -155 0 -15 -39 -41 -54 -37 -28 8 -41 -9 -40 -55 0 -29 -6 -57 -15 -70
-15 -20 -17 -20 -34 -5 -18 16 -20 15 -32 -3 -28 -40 -49 -55 -79 -55 -17 0
-39 -7 -49 -14 -10 -8 -28 -11 -40 -8 -19 5 -20 3 -9 -10 12 -15 6 -18 -45
-28 -32 -6 -67 -13 -79 -15 -12 -3 -24 -2 -28 2 -15 15 -87 14 -102 -2 -9 -8
-20 -12 -26 -9 -6 4 -25 8 -42 10 -17 1 -51 6 -76 10 -70 11 -160 8 -173 -5
-25 -26 20 -47 258 -117 306 -91 487 -179 525 -255 l19 -36 -29 -34 c-16 -19
-29 -40 -30 -47 0 -7 -4 -20 -9 -30 -5 -9 -14 -29 -19 -44 -8 -19 -16 -25 -30
-22 -10 3 -24 -1 -31 -10 -7 -8 -18 -13 -25 -10 -7 3 -25 -2 -40 -10 -17 -9
-37 -11 -49 -7 -14 5 -26 2 -38 -10 -11 -11 -25 -16 -35 -12 -9 3 -19 2 -23
-3 -3 -5 -30 -17 -59 -27 -48 -17 -54 -17 -69 -2 -9 10 -25 14 -37 11 -11 -3
-39 -1 -63 4 -32 8 -53 6 -88 -6 -25 -8 -72 -15 -103 -15 -31 1 -87 1 -125 1
-37 1 -86 8 -108 16 -23 7 -50 14 -59 14 -10 0 -31 6 -47 14 -35 17 -96 37
-100 32 -7 -6 9 -36 20 -36 6 0 18 -7 28 -16 19 -17 73 -32 147 -39 25 -3 50
-9 55 -14 6 -6 17 -7 27 -1 12 7 21 5 29 -4 6 -7 30 -21 53 -31 24 -10 67 -28
96 -41 29 -13 57 -24 61 -24 5 0 39 -13 76 -30 37 -16 72 -30 78 -30 7 0 40
-18 75 -40 34 -22 66 -40 71 -40 15 0 63 -59 57 -69 -4 -6 -3 -11 2 -11 17 0
-1 -53 -19 -57 -11 -3 -19 -12 -19 -19 0 -18 -15 -18 -34 1 -8 8 -25 15 -38
15 -21 -1 -21 -2 -5 -11 24 -14 11 -30 -19 -23 -20 5 -24 2 -24 -15 0 -11 -9
-25 -20 -31 -20 -11 -30 3 -10 15 17 10 11 32 -10 38 -14 4 -20 0 -20 -13 0
-27 -24 -42 -56 -34 -21 5 -25 4 -19 -6 5 -8 4 -11 -3 -6 -17 10 -62 -4 -62
-20 0 -8 10 -14 22 -14 20 0 21 -2 7 -15 -10 -10 -41 -17 -93 -20 -43 -2 -84
-9 -91 -15 -10 -8 -19 -8 -35 0 -11 6 -31 8 -43 4 -23 -8 -55 -13 -97 -16 -14
-2 -30 -9 -36 -17 -8 -11 -15 -11 -33 -2 -18 10 -26 10 -38 -1 -13 -11 -18 -9
-31 10 -8 12 -23 22 -34 22 -12 0 -18 6 -16 18 2 11 -4 18 -20 20 -12 2 -22
11 -23 20 0 9 -9 31 -18 47 -13 22 -25 29 -42 28 l-24 -3 24 19 c18 14 22 23
16 37 -14 32 -13 83 1 88 8 3 11 12 8 21 -4 10 -14 13 -31 9 -19 -5 -24 -3
-21 7 3 9 22 15 51 17 39 3 47 6 47 23 0 20 -15 26 -25 9 -3 -5 -18 -10 -32
-10 -20 0 -24 4 -20 20 4 17 1 20 -21 19 -15 -1 -35 2 -45 6 -10 4 -17 3 -17
-3 0 -6 8 -13 18 -15 9 -3 -1 -4 -23 -3 -34 1 -40 -2 -40 -19 0 -13 7 -20 20
-20 12 0 21 -8 23 -20 4 -16 2 -17 -11 -7 -11 9 -17 10 -22 2 -4 -6 -23 -11
-44 -10 -67 3 -73 2 -66 -20 4 -11 2 -20 -4 -20 -6 0 -11 7 -11 15 0 9 -10 15
-22 16 -22 1 -22 1 2 8 17 5 21 9 13 14 -7 5 -21 4 -30 -1 -10 -5 -34 -10 -53
-10 -19 0 -36 -6 -38 -11 -2 -6 -10 -11 -17 -11 -7 0 -30 -22 -50 -50 -20 -27
-41 -50 -47 -50 -14 0 -2 -118 13 -136 6 -8 8 -14 3 -14 -4 0 -3 -5 4 -12 17
-17 15 -49 -4 -76 -9 -13 -13 -29 -10 -37 3 -8 1 -17 -4 -20 -15 -10 -12 -23
8 -28 14 -4 15 -5 1 -6 -21 -1 -31 -67 -15 -95 8 -14 8 -20 -1 -23 -7 -3 -13
-14 -13 -25 0 -16 5 -19 21 -15 15 4 19 2 15 -10 -3 -8 -6 -23 -6 -34 0 -12
-7 -19 -19 -19 -15 0 -19 -7 -18 -36 1 -20 -5 -39 -13 -44 -11 -7 -11 -11 -1
-24 11 -13 11 -19 1 -31 -7 -8 -18 -15 -25 -15 -14 0 -9 -36 7 -57 6 -7 5 -19
-1 -32 -8 -15 -7 -23 4 -34 10 -10 13 -27 9 -53 -3 -22 -6 -53 -7 -71 -1 -17
-5 -34 -8 -37 -3 -4 -1 -24 4 -46 12 -44 -4 -90 -36 -98 -9 -2 -17 -11 -17
-19 0 -11 -11 -13 -45 -10 -46 4 -58 -5 -29 -21 36 -20 3 -30 -81 -26 -47 2
-85 0 -85 -4 0 -15 -37 -52 -52 -52 -8 0 -19 5 -25 11 -16 16 -28 -8 -12 -27
10 -13 10 -17 -1 -24 -8 -5 -10 -14 -5 -26 5 -11 7 -24 6 -31 -1 -7 7 -17 18
-22 17 -9 17 -14 7 -43 -6 -18 -15 -39 -19 -46 -5 -6 -5 -16 -2 -22 8 -12 -35
-70 -52 -70 -18 0 -16 19 2 26 17 7 21 34 5 34 -5 0 -10 -4 -10 -9 0 -5 -9
-12 -19 -16 -26 -8 -36 -37 -16 -51 13 -10 13 -13 1 -23 -7 -6 -21 -9 -30 -5
-11 4 -16 1 -16 -13 0 -23 -29 -66 -30 -44 0 8 -7 22 -16 32 -14 16 -14 18 5
29 30 16 26 30 -8 30 -27 0 -30 -3 -28 -33 2 -17 6 -38 10 -44 5 -7 5 -18 2
-23 -8 -12 34 -29 55 -22 8 2 5 -3 -8 -12 -12 -10 -20 -22 -17 -27 4 -5 -2 -9
-11 -9 -10 0 -15 3 -11 6 9 9 -19 34 -38 34 -12 0 -15 -6 -10 -20 5 -14 2 -20
-9 -20 -9 0 -16 8 -16 19 0 11 -5 23 -10 26 -8 5 -7 11 1 21 19 23 4 26 -21 4
-21 -18 -22 -23 -10 -44 7 -13 10 -29 6 -34 -3 -5 10 -13 30 -17 l37 -6 -28
-15 c-16 -8 -34 -13 -41 -10 -18 7 -54 -22 -54 -44 0 -11 8 -20 20 -22 12 -2
20 -7 20 -12 -1 -5 4 -12 12 -17 10 -6 10 -11 0 -21 -9 -9 -12 -9 -12 0 0 21
-16 13 -29 -14 -10 -22 -9 -30 4 -44 10 -12 13 -20 6 -24 -6 -4 -8 -20 -5 -35
4 -16 1 -32 -5 -35 -10 -7 -12 -2 -15 37 -2 29 -36 36 -36 7 0 -11 5 -20 10
-20 13 0 13 -27 -1 -35 -6 -4 -13 2 -16 14 -8 32 -20 25 -15 -9 2 -17 -1 -37
-8 -45 -9 -11 -10 -22 -1 -42 26 -64 -5 -124 -37 -73 -15 24 -29 18 -42 -16
-6 -15 -18 -24 -32 -25 -13 0 -18 -3 -11 -5 7 -3 9 -12 6 -20 -3 -7 -9 -11
-14 -8 -6 3 -7 -5 -3 -20 4 -18 2 -26 -7 -26 -11 0 -11 -2 -1 -8 9 -6 5 -18
-18 -48 -16 -21 -30 -45 -30 -51 0 -7 -4 -13 -10 -13 -6 0 -10 -62 -10 -165
l0 -165 1595 0 1595 0 46 35 c25 19 50 35 55 35 5 0 7 17 3 39 -8 51 18 71 96
71 96 0 131 10 149 41 16 29 72 56 91 44 13 -8 13 -205 0 -239 l-10 -26 95 0
c59 0 95 4 95 10 0 17 83 49 101 39 9 -5 39 -1 75 11 32 10 62 16 67 13 4 -2
7 -20 7 -39 l0 -34 479 0 479 0 13 52 c6 29 25 91 41 138 42 122 78 234 78
242 0 3 -26 4 -58 1 -76 -7 -80 2 -42 113 34 101 41 110 83 117 18 4 61 11 97
18 36 6 121 12 190 13 114 1 132 -2 200 -27 112 -43 110 -42 110 -18 0 19 2
19 26 9 l26 -12 -22 -18 c-21 -17 -20 -38 1 -38 6 0 7 4 4 10 -3 5 0 7 8 4 8
-3 20 2 27 11 7 8 18 15 25 15 15 0 111 64 154 103 17 15 36 27 43 27 6 0 24
14 40 32 20 23 28 42 28 68 0 59 -19 142 -36 162 -14 15 -15 20 -4 33 9 11 10
19 3 26 -7 7 -29 1 -70 -19 -33 -17 -77 -33 -99 -37 -84 -13 -90 -16 -72 -26
15 -8 123 7 192 28 29 8 9 -17 -28 -34 -17 -8 -44 -21 -60 -30 -21 -11 -31
-13 -34 -5 -5 16 -32 15 -32 -1 0 -10 -21 -13 -81 -12 -44 0 -83 -3 -85 -7 -3
-4 -11 -5 -19 -2 -8 3 -20 2 -27 -2 -14 -9 -39 -12 -138 -16 -60 -3 -65 -1
-68 18 -2 15 3 23 17 27 12 3 21 12 21 21 0 10 10 17 28 17 51 3 227 -1 260
-6 17 -3 32 -1 32 4 0 12 -25 21 -58 21 -31 0 -156 46 -194 72 -14 10 -29 18
-34 18 -4 0 -26 16 -50 35 -63 52 -123 176 -131 271 -5 67 -4 75 26 130 18 32
37 63 42 68 5 6 9 18 9 27 0 25 38 49 76 49 26 0 33 5 38 25 4 14 3 37 0 51
-5 20 -3 25 7 22 8 -3 13 -15 11 -26 -2 -12 1 -22 6 -22 15 0 20 33 15 84 -6
48 -26 62 -38 26 -4 -11 -10 -18 -15 -15 -28 17 53 105 132 146 63 32 102 42
170 43 25 1 50 4 54 8 4 5 2 8 -4 8 -8 0 -9 7 -2 25 5 14 9 151 9 313 -1 270
5 387 20 378 3 -2 5 -83 4 -180 -1 -106 3 -178 9 -182 5 -3 7 -23 3 -45 -4
-22 -3 -45 3 -52 16 -20 23 -102 9 -116 -9 -9 -9 -14 3 -21 12 -7 12 -14 4
-27 -9 -14 -6 -21 10 -35 20 -17 20 -19 4 -28 -23 -14 -23 -22 6 -55 24 -28
41 -22 30 12 -6 17 -6 17 7 1 8 -10 28 -21 46 -24 25 -5 33 -2 42 15 9 16 9
21 -2 21 -15 0 -15 34 1 71 6 15 8 36 5 48 -3 12 -1 21 3 21 5 0 9 19 9 43 1
52 28 97 61 97 25 0 33 -15 12 -23 -9 -3 -6 -10 8 -23 24 -21 47 -119 34 -144
-9 -18 1 -52 15 -50 6 0 11 -6 13 -14 2 -9 -2 -16 -8 -16 -7 0 -8 -6 -1 -18
13 -24 8 -109 -6 -124 -18 -17 -16 -32 7 -53 18 -17 19 -20 4 -36 -12 -13 -12
-18 -2 -22 10 -3 10 -9 1 -24 -8 -14 -8 -24 -1 -31 7 -7 6 -17 -1 -31 -9 -15
-8 -25 1 -40 10 -17 9 -24 -10 -44 -20 -21 -21 -25 -6 -45 10 -15 11 -22 3
-22 -7 0 -9 -11 -5 -34 4 -20 2 -37 -4 -41 -5 -3 -10 -17 -10 -30 0 -13 -5
-35 -11 -49 -7 -14 -9 -32 -5 -42 6 -16 8 -16 26 1 11 10 26 15 35 12 18 -7
20 -38 4 -54 -13 -13 -4 -33 15 -33 21 0 27 -40 10 -58 -8 -8 -14 -26 -13 -41
1 -14 -1 -38 -6 -54 -9 -33 2 -87 15 -68 5 9 17 11 33 7 20 -5 28 0 42 20 18
28 15 36 -18 41 -33 5 -42 19 -29 48 13 29 28 31 60 9 21 -14 24 -14 51 12 34
31 91 53 123 47 14 -3 33 4 47 16 14 12 32 19 42 16 12 -4 19 1 24 14 3 11 16
21 28 23 34 5 28 34 -5 30 -36 -4 -36 13 -3 62 29 43 30 46 11 46 -8 0 -17 -8
-19 -18 -3 -10 -5 -7 -6 10 0 15 5 31 12 35 6 4 18 18 25 31 10 19 10 23 -2
28 -8 3 -12 12 -9 20 3 8 0 14 -6 14 -6 0 -11 6 -11 14 0 9 -8 12 -24 9 -27
-6 -35 3 -40 46 -2 17 -11 42 -20 55 -11 17 -12 27 -5 32 6 3 9 20 7 36 -6 38
8 45 37 18 19 -18 22 -27 14 -42 -9 -16 -3 -27 30 -63 23 -25 41 -48 41 -52 0
-12 99 -65 109 -58 5 3 12 1 16 -5 3 -5 0 -10 -7 -11 -7 0 -4 -4 7 -8 24 -10
55 7 48 26 -3 7 -2 24 1 38 5 21 10 24 39 18 17 -3 37 -12 44 -20 17 -22 62
-43 68 -33 8 13 -13 60 -27 60 -9 0 -9 3 -1 11 8 8 17 8 33 -1 19 -10 21 -17
16 -51 -6 -34 -4 -39 14 -39 11 0 20 7 20 14 0 8 12 27 26 43 21 22 27 25 34
13 15 -23 12 -48 -7 -59 -16 -9 -16 -10 3 -11 12 0 25 -7 28 -16 8 -22 -13
-47 -35 -41 -12 3 -16 0 -12 -9 3 -8 0 -14 -6 -14 -6 0 -11 -13 -11 -29 0 -37
-32 -51 -60 -26 -15 14 -22 14 -41 5 -20 -11 -20 -13 -6 -22 10 -5 17 -15 17
-22 0 -9 9 -12 25 -8 27 5 32 -7 13 -26 -10 -10 -10 -15 2 -22 8 -5 12 -10 8
-11 -5 -1 -11 -2 -16 -3 -14 -2 -62 -44 -62 -54 0 -5 11 -13 25 -16 28 -7 33
-21 10 -30 -8 -3 -15 -13 -15 -23 -1 -25 -31 -62 -37 -45 -6 15 -43 16 -43 1
0 -6 9 -13 20 -16 15 -4 19 -11 15 -24 -5 -14 -1 -19 14 -19 12 0 21 -7 21
-15 0 -12 -4 -13 -25 -3 -30 14 -44 3 -27 -20 7 -9 15 -25 18 -34 4 -10 13
-18 20 -18 8 0 14 -4 14 -10 0 -5 -4 -10 -10 -10 -5 0 -10 -7 -10 -15 0 -9
-10 -19 -23 -24 -33 -13 -50 -37 -42 -61 5 -15 2 -20 -14 -21 -33 -2 -39 -4
-47 -12 -4 -4 -2 -7 4 -7 7 0 12 -7 12 -15 0 -18 -5 -18 -31 -5 -15 9 -19 7
-19 -7 0 -10 -9 -24 -20 -31 -11 -7 -20 -19 -20 -27 0 -8 -4 -15 -10 -15 -5 0
-10 5 -10 10 0 6 -4 10 -9 10 -4 0 -6 -11 -4 -24 5 -26 -23 -44 -41 -26 -17
17 -26 11 -26 -17 -1 -24 -2 -25 -11 -11 -12 21 -49 24 -49 5 0 -8 -9 -22 -20
-32 -18 -16 -20 -16 -26 -1 -3 9 -10 16 -15 16 -12 0 -12 -36 0 -58 6 -12 4
-24 -9 -40 -21 -25 -74 -40 -84 -23 -12 20 4 51 27 52 21 0 21 1 2 8 -11 5
-26 6 -33 3 -8 -3 -23 -6 -35 -7 -12 -1 -27 -3 -34 -4 -7 0 -18 -11 -25 -23
-8 -14 -23 -23 -37 -23 -13 0 -26 -6 -29 -14 -3 -10 2 -12 21 -7 21 5 26 2 29
-16 2 -13 -4 -28 -12 -35 -13 -10 -12 -15 10 -38 23 -24 24 -28 8 -39 -15 -11
-15 -13 4 -25 27 -17 6 -32 -37 -25 -16 2 -24 1 -17 -2 7 -3 18 -18 24 -33 6
-14 12 -21 15 -15 5 15 50 5 57 -13 5 -12 0 -13 -24 -8 -34 7 -39 -1 -12 -21
15 -13 15 -15 1 -26 -8 -7 -18 -21 -22 -31 -4 -11 -16 -21 -27 -24 -24 -6 -26
-19 -5 -30 8 -5 14 -23 14 -43 1 -56 -3 -79 -11 -74 -14 9 -8 -13 7 -26 23
-19 40 -6 54 40 18 60 112 155 169 170 24 6 52 8 63 5 34 -11 70 -79 82 -155
l11 -70 162 0 162 0 5 28 c3 15 0 34 -6 42 -7 8 -18 25 -25 37 -10 19 -10 23
2 23 7 0 21 21 31 48 10 26 22 51 26 56 5 6 9 18 9 27 0 9 7 19 15 23 8 3 15
11 15 19 0 7 15 28 33 47 17 20 38 46 44 60 7 14 23 41 35 61 13 19 33 51 45
70 12 19 33 50 47 69 43 57 178 246 216 301 19 28 53 75 75 103 22 28 56 76
75 106 19 30 47 71 62 90 43 53 44 54 58 81 13 23 60 86 90 119 8 9 20 25 26
36 7 10 15 16 20 11 4 -4 2 -13 -4 -19 -7 -7 -12 -21 -12 -32 0 -12 -14 -35
-30 -53 -17 -18 -30 -43 -30 -57 0 -15 -4 -26 -10 -26 -5 0 -10 -7 -10 -15 0
-8 -4 -15 -10 -15 -5 0 -10 -4 -10 -10 0 -5 -22 -47 -49 -94 -27 -46 -51 -96
-55 -110 -3 -14 -17 -33 -31 -42 -14 -9 -25 -22 -25 -28 0 -6 -9 -19 -20 -29
-11 -9 -20 -23 -20 -32 0 -17 -41 -99 -52 -103 -4 -2 -8 -11 -8 -20 0 -22 -58
-122 -70 -122 -6 0 -10 -10 -10 -23 0 -13 -4 -27 -8 -33 -5 -5 -15 -25 -22
-44 -7 -19 -24 -50 -37 -67 -13 -18 -21 -33 -18 -33 3 0 -1 -13 -10 -30 -9
-16 -19 -30 -24 -30 -5 0 -12 -17 -16 -37 -4 -20 -18 -50 -31 -66 -13 -16 -24
-36 -24 -46 0 -9 -7 -26 -15 -37 -8 -10 -15 -32 -15 -47 0 -20 -6 -30 -19 -34
-17 -4 -51 -79 -51 -112 0 -16 1022 -15 1038 1 9 9 12 9 12 0 0 -7 9 -12 20
-12 13 0 20 7 20 20 0 11 7 20 15 20 8 0 15 -9 15 -20 0 -11 5 -20 10 -20 6 0
10 9 10 20 0 11 -4 20 -10 20 -5 0 -10 5 -10 10 0 6 9 10 20 10 18 0 19 3 10
20 -12 22 -8 24 41 20 21 -1 30 6 42 29 15 30 15 31 -9 31 -35 0 -30 27 6 32
25 4 30 1 30 -17 0 -11 7 -30 15 -42 14 -21 14 -24 -5 -43 -21 -21 -27 -60
-10 -60 6 0 10 5 10 11 0 6 6 9 14 6 13 -5 25 44 29 128 1 17 8 36 15 43 6 8
10 17 7 21 -2 4 5 31 15 60 11 28 20 65 20 81 0 17 4 38 10 48 11 18 35 85 52
142 5 19 14 39 19 44 5 6 9 19 9 30 0 12 7 30 15 40 8 11 15 30 15 43 0 13 9
42 20 63 11 22 23 60 27 85 3 25 9 45 14 45 4 0 11 14 14 32 4 17 16 47 27 66
10 19 16 38 11 43 -4 4 -33 9 -63 11 l-55 3 0 235 c0 258 6 292 53 307 15 4
82 7 150 5 l122 -3 0 -33 c0 -45 -24 -54 -137 -48 l-93 4 -10 -26 c-5 -15 -10
-101 -10 -191 0 -149 2 -165 18 -174 10 -6 27 -8 38 -5 18 5 19 15 20 127 2
144 11 172 60 193 41 17 89 11 81 -10 -4 -10 1 -12 15 -8 15 3 19 1 16 -9 -3
-8 -15 -13 -26 -11 -26 4 -26 4 -6 -37 12 -23 21 -30 34 -26 15 5 18 0 17 -30
-1 -19 -5 -35 -9 -35 -4 0 -8 -13 -8 -30 0 -16 -3 -30 -7 -30 -9 0 -33 -49
-33 -67 0 -7 4 -13 9 -13 15 0 19 -61 5 -67 -8 -3 -11 -16 -7 -39 4 -27 2 -34
-11 -34 -9 0 -16 -8 -16 -19 0 -10 -9 -29 -19 -42 -11 -14 -21 -47 -24 -79 -3
-30 -9 -56 -15 -58 -5 -1 -18 -9 -28 -17 -18 -14 -18 -16 -1 -26 21 -13 14
-56 -14 -81 -14 -12 -16 -18 -7 -21 9 -4 8 -6 -3 -6 -10 -1 -22 -21 -34 -58
-11 -32 -25 -65 -32 -74 -7 -8 -13 -25 -13 -37 0 -12 -5 -22 -11 -22 -7 0 -9
-11 -6 -30 4 -16 2 -32 -3 -35 -6 -3 -10 -22 -10 -41 0 -28 -4 -34 -21 -34
-17 0 -20 -4 -15 -24 3 -14 2 -27 -3 -30 -5 -3 -7 -26 -5 -51 3 -33 1 -44 -8
-43 -9 2 -13 -9 -13 -32 0 -20 -8 -44 -18 -55 -13 -14 -17 -29 -13 -49 3 -16
6 -35 6 -42 0 -12 249 -14 1603 -13 l1602 0 -40 32 c-57 45 -230 219 -237 238
-3 8 -28 48 -54 88 -27 40 -58 87 -68 104 -11 18 -35 45 -53 61 -18 16 -33 36
-33 45 0 9 -6 25 -14 36 -7 11 -16 34 -20 50 -4 17 -21 59 -39 95 l-32 65 -8
-40 c-4 -22 -10 -52 -13 -66 -4 -16 0 -32 10 -42 9 -8 16 -27 16 -41 0 -14 5
-26 11 -26 8 0 8 -5 -1 -15 -11 -13 -16 -13 -41 2 -26 15 -34 31 -30 56 1 4
-10 29 -23 56 -14 26 -27 68 -31 92 -11 81 -13 283 -3 344 10 62 54 203 69
219 12 13 11 36 -1 36 -5 0 -14 -6 -19 -12 -16 -20 -65 -78 -81 -97 -21 -24
-86 -160 -94 -198 -9 -38 -24 -51 -32 -28 -4 9 1 24 10 34 9 10 16 25 16 34 0
9 5 17 11 17 7 0 9 9 6 21 -3 12 0 22 9 26 8 3 14 10 14 17 1 6 9 29 20 51 11
22 19 46 20 53 0 6 9 12 20 12 11 0 20 5 20 12 0 17 83 93 88 80 7 -23 24 -12
18 12 -4 16 0 29 13 41 45 40 63 125 27 125 -20 0 -96 -59 -96 -74 0 -9 -7
-12 -21 -9 -16 4 -20 2 -17 -8 5 -15 -101 -129 -120 -129 -7 0 -12 -10 -12
-23 0 -12 -9 -28 -21 -35 -11 -7 -28 -31 -38 -52 -10 -22 -20 -37 -23 -34 -3
2 -9 -7 -12 -21 -4 -14 -11 -23 -17 -20 -14 9 -1 70 31 140 33 75 44 125 27
125 -6 0 -29 -16 -50 -36 -34 -33 -40 -35 -54 -22 -13 14 -13 18 5 34 11 11
23 33 26 51 4 17 13 36 20 42 7 6 13 30 14 53 1 23 9 49 17 58 8 9 15 26 15
38 0 15 15 33 45 54 30 21 45 39 45 53 0 12 9 32 20 45 11 12 22 31 25 41 4
11 12 19 20 19 7 0 16 11 19 25 4 14 11 25 16 25 6 0 53 43 104 95 52 52 101
95 110 95 8 0 19 6 23 13 18 30 215 154 338 213 95 46 79 56 -39 24 -42 -11
-81 -18 -86 -15 -4 3 -21 -1 -37 -9 -15 -8 -52 -21 -81 -30 -28 -8 -62 -25
-75 -37 -12 -12 -36 -27 -54 -35 -17 -8 -34 -23 -38 -34 -3 -11 -10 -20 -15
-20 -4 0 -34 -25 -65 -55 -31 -30 -62 -55 -70 -55 -17 0 -20 -16 -5 -25 6 -4
4 -12 -6 -22 -13 -13 -17 -14 -24 -3 -6 10 -11 6 -16 -16 -4 -16 -12 -32 -18
-36 -8 -6 -7 -10 1 -16 13 -8 7 -52 -7 -52 -10 0 -22 33 -18 48 2 5 -1 10 -7
11 -5 0 -10 -6 -10 -13 0 -22 -42 -57 -59 -50 -11 4 -16 0 -16 -15 0 -11 -9
-26 -20 -33 -11 -7 -20 -22 -20 -33 0 -38 -42 -61 -53 -31 -8 21 43 93 151
215 13 14 42 49 64 76 22 28 56 67 75 88 53 58 18 83 -39 27 -17 -17 -47 -39
-68 -50 -21 -11 -53 -33 -70 -49 -18 -16 -48 -32 -67 -36 -18 -3 -33 -11 -32
-18 3 -24 -1 -37 -11 -37 -37 0 45 124 126 191 10 9 35 33 55 55 20 21 53 53
73 69 63 52 89 75 166 149 83 80 174 150 206 160 11 3 27 17 34 31 7 13 26 29
41 34 30 10 37 29 18 48 -18 18 -167 -6 -199 -32 -8 -7 -31 -15 -51 -19 -20
-3 -44 -15 -54 -26 -10 -11 -27 -20 -37 -20 -12 0 -22 -9 -25 -21 -4 -12 -17
-22 -34 -26 -16 -3 -34 -12 -40 -19 -6 -8 -21 -14 -33 -14 -14 0 -38 -21 -70
-60 -28 -33 -58 -60 -67 -60 -26 0 -50 -11 -44 -20 3 -5 1 -11 -5 -15 -5 -3
-10 -16 -10 -28 0 -12 -9 -28 -20 -35 -11 -7 -20 -19 -20 -27 0 -8 -4 -15 -9
-15 -4 0 -23 -13 -42 -29 -23 -20 -36 -26 -41 -18 -4 6 -2 15 4 18 6 4 -2 14
-21 24 -21 10 -31 22 -29 33 3 17 7 19 58 21 27 1 29 3 20 20 -5 11 -23 22
-40 26 -32 7 -40 29 -15 39 17 6 21 36 5 36 -20 0 -10 28 12 34 22 5 22 6 3
20 -11 8 -23 13 -26 10 -3 -2 -4 8 -1 21 4 22 0 25 -39 31 -33 6 -39 9 -24 14
11 4 25 4 30 0 6 -4 33 -10 61 -14 46 -6 52 -4 77 22 l27 28 -27 38 c-27 37
-27 38 -9 52 23 16 20 20 -16 29 -23 6 -26 4 -21 -13 6 -24 -11 -37 -25 -19
-5 6 -15 29 -22 50 -12 38 -32 45 -38 14 -2 -10 3 -17 12 -17 9 0 16 -8 16
-20 0 -15 -7 -20 -25 -20 -14 0 -25 5 -25 10 0 6 -7 10 -15 10 -8 0 -15 7 -15
15 0 15 -40 30 -62 23 -14 -5 -38 15 -38 31 0 6 5 11 10 11 6 0 10 5 10 11 0
6 -8 8 -19 4 -13 -4 -23 0 -29 11 -7 13 -18 16 -46 11 -32 -5 -36 -4 -36 17 0
42 -18 47 -76 18 -29 -15 -53 -32 -53 -38 -1 -16 -29 -26 -37 -13 -3 5 -15 7
-25 4 -11 -4 -26 -1 -34 5 -12 10 -20 9 -40 -4 -26 -17 -55 -21 -55 -8 0 9 37
42 47 42 3 0 21 11 39 25 18 14 37 25 42 25 5 0 20 8 33 18 30 24 113 52 151
52 16 0 38 5 49 11 11 5 55 11 97 13 42 1 95 7 117 13 58 17 205 43 241 43 42
0 51 24 19 52 -14 12 -25 28 -25 35 0 15 46 18 55 3 3 -5 15 -10 26 -10 10 0
19 -4 19 -9 0 -6 12 -17 28 -25 72 -40 96 -48 136 -42 23 3 75 6 116 7 89 2
129 18 153 62 22 40 86 95 118 100 13 2 31 7 39 10 8 3 39 13 67 22 29 9 62
24 73 33 21 17 39 74 40 125 0 23 -4 27 -27 27 -38 0 -93 63 -127 149 -27 68
-61 105 -75 83 -8 -12 -160 -98 -218 -123 -54 -23 -96 -24 -113 -4 -7 9 -28
23 -47 32 -36 17 -101 76 -119 108 -6 11 -21 22 -34 23 -21 3 -22 1 -16 -32 7
-34 6 -35 -16 -27 -13 4 -23 12 -23 17 -1 24 -39 64 -61 64 -24 0 -94 37 -94
49 0 5 -20 7 -45 7 -39 -1 -49 4 -87 42 -24 23 -51 42 -59 42 -9 0 -38 11 -64
26 -59 31 -69 23 -60 -43 5 -40 11 -51 36 -66 17 -9 37 -17 45 -17 8 0 32 -9
52 -19 20 -11 76 -34 124 -52 77 -28 88 -35 93 -60 11 -47 -1 -65 -40 -65 -43
0 -54 -10 -29 -28 10 -8 17 -16 14 -18 -3 -2 -17 -12 -32 -21 -16 -10 -28 -24
-28 -31 0 -7 -14 -16 -31 -20 -58 -11 -69 -8 -85 29 l-14 35 -57 -4 c-32 -2
-59 -9 -61 -15 -2 -6 -14 -8 -29 -5 -22 6 -24 4 -18 -15 5 -18 2 -21 -19 -21
-14 0 -26 -4 -26 -9 0 -16 50 -66 68 -69 83 -12 155 -26 194 -38 26 -8 57 -14
70 -14 30 0 39 -7 74 -55 43 -60 67 -85 80 -85 6 0 17 -7 24 -15 10 -13 9 -15
-9 -15 -11 0 -21 5 -21 10 0 6 -11 10 -24 10 -14 0 -28 5 -31 10 -3 6 -17 10
-30 10 -13 0 -27 5 -30 10 -4 7 -11 7 -18 2 -7 -5 -19 -9 -27 -10 -35 0 -186
-21 -202 -27 -10 -4 -18 -3 -18 3 0 7 -29 10 -77 9 -72 -2 -78 -4 -90 -27 -8
-15 -13 -19 -13 -9 0 25 -42 56 -85 62 -28 5 -51 1 -80 -12 -22 -10 -52 -22
-67 -25 -15 -3 -35 -15 -45 -25 -40 -42 -106 -91 -123 -91 -14 0 -37 40 -27
46 1 1 -6 11 -16 22 -15 16 -16 25 -8 40 9 17 6 23 -14 36 -23 15 -39 15 -97
-1 -13 -3 -22 6 -34 36 -9 23 -22 41 -29 41 -6 0 -12 13 -13 28 0 26 2 28 29
24 16 -2 32 -8 35 -13 3 -5 16 -9 28 -9 32 0 106 -43 147 -85 25 -26 45 -35
81 -40 45 -6 52 -4 91 28 23 19 49 47 57 63 8 16 21 35 28 42 6 7 12 24 12 38
0 13 6 24 13 24 8 0 20 12 27 28 19 37 81 102 98 102 11 0 10 3 -2 15 -8 8
-22 15 -31 15 -9 0 -13 5 -9 11 3 6 18 8 33 5 l26 -6 -24 20 c-13 11 -34 20
-47 20 -15 0 -33 13 -50 35 -50 65 -12 105 101 105 37 0 57 5 66 17 19 22 16
102 -4 133 -22 34 -34 110 -17 110 9 0 8 5 -3 18 -10 10 -17 24 -17 30 0 7 -8
12 -19 12 -13 0 -27 17 -45 55 -14 31 -26 58 -26 62 0 3 -18 27 -41 52 -55 63
-55 63 -80 115 l-21 46 29 57 c33 65 59 84 48 34 -6 -28 -4 -31 19 -31 14 0
26 3 27 8 3 28 11 57 19 67 11 13 -6 35 -28 35 -7 0 -12 8 -10 18 2 9 12 17
23 17 20 0 33 20 59 88 13 33 19 37 49 37 30 0 36 4 42 28 3 15 19 56 35 92
15 36 33 88 40 117 21 93 60 96 93 7 10 -27 20 -71 21 -99 4 -64 3 -62 22 -69
39 -15 89 40 97 108 8 68 77 66 77 -2 1 -88 41 -170 72 -145 7 6 15 11 18 11
18 0 68 17 85 28 32 22 42 17 55 -32 17 -59 42 -57 90 9 19 26 43 47 52 47 11
0 18 8 18 19 0 11 9 21 21 24 18 5 20 2 15 -19 -5 -17 -2 -24 9 -24 8 0 15 9
15 19 0 13 8 21 23 23 29 4 32 44 2 41 -80 -9 -117 -9 -128 1 -7 6 -43 52 -80
101 -58 80 -132 155 -153 155 -4 0 -22 11 -40 25 -18 14 -43 25 -55 25 -13 0
-49 5 -81 12 -50 10 -65 10 -105 -5 -27 -9 -61 -17 -77 -17 -16 0 -49 -11 -73
-25 -43 -26 -64 -56 -77 -108 -3 -15 -23 -63 -43 -108 -32 -70 -40 -79 -57
-74 -12 4 -38 10 -59 15 -21 4 -48 17 -61 29 -30 28 -67 27 -96 -4 -24 -25
-43 -25 -33 0 3 8 1 15 -4 15 -15 0 -43 -34 -43 -52 0 -47 -54 -15 -88 53 -19
38 -34 55 -50 57 -12 2 -22 6 -22 10 0 7 86 45 127 57 29 8 93 80 93 105 0 23
-46 78 -56 67 -4 -3 -1 -13 5 -21 14 -17 7 -69 -12 -84 -7 -5 -27 -13 -46 -17
-41 -9 -51 3 -51 61 0 32 6 46 29 68 17 17 34 25 41 21 9 -6 10 3 6 31 -10 59
7 75 83 80 35 2 80 13 101 24 22 11 46 20 54 20 15 0 34 46 23 56 -12 12 -46
-17 -41 -34 5 -15 3 -14 -10 2 -15 19 -16 19 -68 -1 -29 -11 -72 -21 -95 -22
-38 -2 -43 1 -43 20 0 12 20 41 45 67 25 25 47 55 49 66 2 12 12 56 22 98 14
61 15 81 6 90 -9 9 -12 7 -12 -12 0 -28 -34 -90 -50 -90 -22 0 -28 47 -16 117
10 62 10 76 -5 111 -21 48 -56 73 -65 45 -15 -49 -35 -83 -49 -83 -20 0 -66
100 -59 127 3 11 -2 25 -10 32 -21 18 -21 100 0 143 8 18 31 44 49 58 18 14
31 28 29 32 -2 4 16 28 41 55 25 26 44 52 42 58 -2 5 -19 12 -38 15 -43 6 -58
16 -87 58 -32 45 -23 71 33 104 25 15 45 31 45 36 0 4 -16 14 -36 21 l-37 13
6 58 c6 49 3 62 -14 84 -11 14 -25 26 -31 26 -5 0 -30 20 -54 43 l-44 44 5 79
5 79 -13 -48 c-8 -26 -17 -50 -20 -53 -10 -10 -27 6 -27 26 0 10 -4 21 -9 24
-4 3 -11 23 -15 45 -8 54 -29 66 -26 15 4 -57 1 -74 -11 -74 -14 0 -40 66 -46
115 -2 22 -8 54 -14 72 -12 38 -76 95 -98 88 -20 -6 -39 33 -48 95 -3 25 -13
55 -21 68 -9 14 -18 63 -22 125 -11 152 -21 169 -194 319 -92 81 -174 167
-197 208 -17 29 -30 40 -48 41 -14 1 -33 2 -41 3 -8 1 -21 5 -28 9 -7 5 -45 6
-83 2 -50 -5 -74 -4 -85 5 -12 11 -18 9 -35 -8 -24 -27 -93 -31 -103 -7 -3 8
-13 15 -22 15 -9 0 -27 9 -41 20 -14 11 -32 20 -40 20 -7 0 -19 11 -25 25 -8
18 -19 25 -42 26 -17 1 -42 5 -56 9 -20 7 -16 8 23 9 54 1 63 20 20 40 -16 8
-36 18 -46 23 -10 5 -28 6 -40 2 -26 -8 -81 -64 -64 -65 7 0 1 -5 -13 -10 -13
-5 -53 -8 -88 -5 -71 5 -96 16 -38 16 41 0 47 22 8 28 -11 2 -28 14 -36 28 -9
13 -21 24 -28 24 -6 0 -46 33 -88 74 -68 64 -83 74 -121 78 -24 3 -51 7 -59
10 -8 3 -43 -2 -77 -11z m-263 -2313 c25 -6 56 -10 70 -9 14 0 32 -4 40 -10
13 -8 12 -12 -7 -26 -13 -8 -23 -23 -23 -33 0 -13 -11 -19 -48 -24 -35 -4 -60
-16 -89 -41 -23 -19 -51 -35 -62 -35 -14 0 -29 -13 -43 -36 l-22 -37 -18 23
c-22 27 -23 39 -3 46 8 4 15 10 15 15 0 5 -7 9 -15 9 -8 0 -15 -7 -15 -15 0
-8 -5 -15 -11 -15 -6 0 -9 9 -6 19 3 12 -1 22 -9 25 -8 3 -14 18 -14 34 0 22
9 37 38 58 20 15 42 35 49 44 10 13 13 13 26 -4 14 -19 14 -19 35 2 25 25 46
27 112 10z m-5900 -243 c14 -7 40 -28 58 -45 31 -32 32 -34 26 -95 -5 -49 -3
-67 10 -88 12 -18 15 -36 11 -59 -5 -25 -2 -38 9 -47 9 -8 16 -24 16 -37 0
-12 5 -26 10 -29 6 -4 9 -14 6 -23 -2 -10 -7 -38 -11 -64 -5 -42 -4 -48 11
-48 16 0 16 -1 -2 -16 -13 -11 -15 -17 -6 -20 6 -3 9 -10 6 -15 -14 -23 -92
49 -101 93 -3 16 -9 28 -14 28 -5 0 -9 5 -9 10 0 6 7 10 16 10 30 0 4 17 -36
24 -22 3 -40 11 -40 16 0 5 7 7 15 4 8 -4 17 1 21 10 3 9 14 16 23 17 13 0 12
2 -3 8 -19 7 -19 8 3 14 29 7 23 28 -12 45 -15 7 -27 17 -27 21 0 5 -22 18
-50 30 -58 25 -64 35 -84 127 -14 71 -12 118 7 142 13 16 107 8 147 -13z
m5710 -265 c8 -5 15 -15 15 -22 0 -8 10 -12 25 -10 21 2 28 -4 43 -42 15 -36
16 -49 7 -66 -7 -12 -10 -34 -7 -49 6 -30 -9 -103 -29 -144 -8 -16 -11 -39 -8
-52 3 -12 0 -26 -6 -30 -8 -5 -6 -11 7 -20 17 -13 17 -14 1 -20 -22 -9 -23
-25 -2 -25 10 0 14 -6 11 -14 -3 -7 -1 -18 5 -24 8 -8 5 -14 -11 -20 -20 -7
-21 -10 -8 -20 15 -13 13 -46 -6 -69 -6 -9 -6 -13 2 -13 6 0 11 -8 10 -17 0
-15 -3 -14 -16 5 -22 31 -43 28 -43 -6 0 -15 -4 -41 -9 -59 -7 -24 -6 -33 5
-37 8 -3 14 -19 14 -37 0 -26 -3 -31 -20 -26 -11 3 -18 1 -14 -4 3 -5 0 -10
-5 -10 -6 -1 -23 -3 -38 -5 -16 -2 -50 -5 -78 -8 -27 -2 -63 -10 -80 -17 -16
-7 -39 -13 -50 -14 -11 -1 -24 -4 -30 -5 -5 -2 -34 0 -63 4 -53 8 -82 -2 -82
-28 0 -25 67 -99 110 -121 67 -34 92 -65 84 -103 -7 -36 -25 -44 -21 -10 1 17
-4 24 -20 26 -20 3 -23 -1 -23 -28 0 -18 -6 -33 -15 -36 -22 -9 -18 -21 9 -28
13 -3 38 -19 56 -36 17 -16 50 -40 71 -52 29 -16 39 -28 37 -43 -2 -13 -9 -19
-23 -18 -11 2 -118 4 -237 4 -248 2 -230 -5 -226 95 2 53 5 62 37 93 22 21 36
45 37 60 1 31 37 126 56 148 19 23 37 81 31 103 -7 26 14 87 49 139 16 24 30
59 31 80 l2 36 -50 0 c-45 0 -51 -3 -70 -32 -14 -23 -26 -32 -39 -28 -11 2
-31 -2 -45 -9 -14 -8 -37 -19 -51 -25 -66 -30 -126 -70 -134 -87 -11 -23 -52
-45 -71 -38 -7 3 -30 -4 -51 -15 -21 -12 -44 -21 -52 -21 -7 0 -11 -9 -9 -22
2 -13 2 -17 0 -10 -7 20 -27 9 -33 -19 -7 -29 -36 -37 -43 -12 -3 12 -5 8 -6
-9 -1 -16 -7 -28 -14 -28 -23 0 -50 -37 -44 -60 3 -14 -2 -29 -14 -41 -10 -10
-19 -32 -19 -48 0 -17 -5 -33 -10 -36 -6 -4 -7 -12 -3 -18 7 -11 9 -37 15
-212 2 -47 8 -75 18 -85 9 -8 14 -23 12 -32 -2 -11 3 -18 13 -18 8 0 19 -10
24 -22 5 -13 17 -23 27 -23 14 0 21 -11 27 -40 4 -22 10 -52 14 -67 5 -26 3
-28 -25 -28 -32 0 -45 -12 -57 -48 -5 -17 -1 -28 13 -41 20 -17 20 -17 1 -29
-18 -11 -21 -9 -33 20 -8 18 -12 37 -9 42 3 4 0 12 -6 16 -7 4 -14 18 -15 31
-2 13 -10 49 -18 79 -26 94 -37 151 -48 255 -6 55 -16 123 -21 152 l-10 52
-52 8 c-43 7 -55 14 -74 42 -14 20 -23 49 -23 70 0 47 39 115 67 119 40 6 46
26 29 86 -19 63 -20 123 -5 163 5 15 14 73 19 129 8 84 17 122 55 219 44 114
48 142 18 130 -13 -5 -15 4 -10 58 6 63 23 117 39 117 4 0 8 -7 8 -17 0 -9 11
-35 24 -58 25 -41 25 -42 6 -72 -25 -42 -17 -111 14 -118 64 -14 175 -3 213
22 31 21 119 9 134 -18 14 -27 6 -29 -118 -30 -35 0 -63 -2 -63 -5 0 -16 34
-53 44 -47 27 18 51 0 45 -33 -1 -5 0 -12 1 -16 4 -14 7 -28 9 -39 0 -6 12 -9
26 -7 16 3 30 -1 41 -13 11 -12 22 -15 37 -10 11 4 38 4 59 1 49 -9 112 4 150
31 16 12 35 22 42 23 8 1 29 13 47 27 47 36 74 49 99 49 16 0 20 4 16 16 -5
13 -2 15 11 9 10 -4 30 -10 46 -13 21 -3 27 0 27 15 0 10 13 27 30 36 17 10
30 24 30 30 0 7 9 18 20 25 11 7 20 19 20 27 0 8 4 15 10 15 5 0 12 16 16 35
3 19 10 38 15 41 5 3 9 15 9 27 0 37 28 67 61 67 16 0 29 5 29 10 0 12 11 13
30 0z m-1870 -265 c26 -13 28 -18 20 -41 -6 -14 -10 -49 -10 -77 0 -59 -21
-139 -38 -145 -17 -5 -61 28 -77 57 -31 61 -31 174 1 206 20 19 67 19 104 0z
m-3538 -219 c4 -6 8 -29 8 -51 0 -45 30 -76 54 -56 19 16 26 2 13 -27 -12 -30
-45 -61 -65 -62 -7 0 -19 15 -27 33 -8 19 -21 39 -29 46 -10 9 -13 22 -9 42 3
18 1 29 -6 29 -6 0 -11 7 -11 16 0 12 6 15 26 10 22 -6 24 -5 15 13 -6 11 -11
22 -11 25 0 8 34 -6 42 -18z m6571 -30 c24 -6 27 -11 27 -46 0 -39 -5 -44 -41
-41 -12 1 -15 -4 -12 -24 3 -15 1 -25 -6 -25 -6 0 -10 -5 -8 -11 1 -6 -4 -14
-10 -16 -7 -3 -13 0 -13 6 0 20 -28 11 -33 -10 -4 -16 0 -23 14 -26 14 -4 19
-12 16 -24 -4 -16 1 -19 30 -19 19 0 32 -4 28 -9 -3 -5 -18 -9 -33 -9 -15 1
-37 -4 -47 -10 -35 -18 -79 -19 -83 -1 -2 11 6 19 22 23 27 7 34 20 16 31 -5
3 -7 12 -3 20 8 24 -19 18 -50 -10 -29 -28 -33 -40 -16 -50 18 -12 4 -28 -29
-30 -17 -2 -37 3 -43 11 -6 8 -24 14 -39 14 -35 0 -90 28 -90 46 0 8 -4 14
-10 14 -5 0 -10 -7 -10 -16 0 -25 -44 -13 -48 13 -2 12 -13 32 -26 45 -27 27
-39 67 -25 84 10 13 2 44 -12 44 -5 0 -9 -9 -9 -20 0 -11 -4 -20 -10 -20 -13
0 -13 16 0 41 9 15 22 19 64 19 35 0 58 -5 66 -15 7 -8 24 -15 39 -16 14 0 35
-4 45 -8 12 -5 31 -2 48 7 16 7 36 11 45 8 9 -4 23 0 32 7 21 18 59 28 67 16
9 -14 34 -10 34 5 0 15 69 28 80 15 3 -3 17 -9 33 -13z m-7189 -202 c9 -3 16
-14 16 -24 0 -20 17 -36 45 -42 11 -2 19 -10 17 -18 -2 -7 2 -16 8 -20 6 -4
12 -23 13 -44 1 -24 6 -35 15 -31 6 2 12 0 12 -4 0 -12 -26 -21 -61 -21 -17 0
-39 -5 -50 -10 -15 -8 -19 -7 -19 4 0 7 7 17 16 20 9 4 14 15 12 28 -2 18 -9
22 -27 20 -34 -3 -19 9 19 17 46 9 32 27 -19 23 l-44 -4 8 39 c7 39 13 66 14
71 1 3 8 2 25 -4z m9002 -117 c0 -1 8 -14 17 -29 25 -40 22 -105 -5 -129 -30
-24 -38 -23 -65 5 -19 19 -23 35 -23 83 0 67 13 87 50 78 14 -4 25 -7 26 -8z
m-6781 -63 c15 -11 20 -28 22 -67 6 -175 14 -231 44 -289 21 -43 -30 -158 -72
-158 -10 0 -20 -4 -23 -9 -3 -4 -29 -11 -58 -15 -70 -10 -101 -35 -60 -51 9
-3 56 -12 104 -20 102 -15 207 -62 238 -106 27 -37 25 -105 -2 -103 -18 2 -25
-20 -10 -29 4 -2 0 -2 -8 1 -56 16 -53 18 -36 -16 13 -26 13 -32 1 -42 -7 -6
-11 -18 -8 -27 5 -12 1 -14 -15 -9 -29 10 -112 -13 -112 -31 0 -8 13 -22 30
-31 35 -20 38 -41 9 -65 -11 -10 -18 -25 -15 -35 8 -26 -19 -55 -51 -55 -46 1
-134 37 -159 66 -13 15 -29 27 -37 27 -17 0 -87 62 -87 77 0 5 -9 18 -20 28
-11 10 -20 28 -20 40 0 12 -9 34 -20 48 -24 30 -26 65 -4 95 9 14 14 33 10 46
-8 31 17 51 62 51 33 0 36 3 51 47 9 26 22 53 29 60 15 15 16 44 1 53 -6 4 -8
13 -5 21 7 19 -9 18 -40 -2 -13 -9 -26 -15 -27 -13 -32 57 -35 70 -24 92 25
47 111 132 158 157 48 25 56 37 64 97 4 29 11 55 16 59 5 3 9 16 9 30 0 13 4
24 10 24 5 0 9 8 8 18 -4 54 10 65 47 36z m867 -41 c21 -14 48 -39 61 -57 14
-17 37 -43 52 -59 16 -15 26 -30 23 -32 -10 -11 -52 -14 -58 -6 -3 5 -25 10
-50 12 -40 4 -45 2 -48 -18 -4 -27 -20 -30 -29 -5 -3 9 -15 27 -25 38 -24 27
-36 127 -18 149 15 19 41 13 92 -22z m-32 -228 c0 -17 12 -19 26 -5 6 6 23 0
48 -18 28 -19 34 -28 22 -30 -21 -4 -20 -18 2 -31 9 -6 15 -11 12 -11 -3 -1
-13 -3 -23 -5 -10 -2 -26 -10 -35 -17 -25 -21 -63 -36 -103 -41 l-36 -5 12 36
c33 101 75 173 75 127z m2600 -387 c15 -19 21 -21 31 -10 23 22 76 14 104 -15
l26 -28 17 22 c15 20 23 22 67 17 71 -9 97 -32 99 -90 1 -54 -2 -57 -88 -73
-55 -10 -62 -9 -82 10 -14 13 -24 17 -29 10 -3 -6 -26 -11 -50 -11 -33 0 -47
5 -58 21 -13 17 -21 20 -59 14 -77 -12 -140 45 -124 110 4 17 13 25 29 25 12
0 29 5 37 10 26 17 61 11 80 -12z m-2137 -78 c4 -19 10 -46 13 -60 3 -14 10
-42 16 -62 10 -34 8 -40 -16 -69 -38 -45 -64 -99 -101 -209 l-31 -95 -72 3
c-60 3 -78 0 -108 -18 -19 -12 -42 -33 -50 -46 -35 -53 -80 -38 -180 61 -36
36 -69 65 -74 65 -21 0 -53 86 -56 151 -3 60 -1 67 16 72 28 7 25 27 -5 27
-16 0 -25 6 -25 15 0 17 40 21 56 5 8 -8 19 -8 38 0 69 26 93 0 50 -55 -36
-47 -25 -55 81 -55 58 0 91 -5 120 -19 93 -45 199 -49 202 -8 3 31 23 75 38
81 17 6 45 63 45 90 -1 12 -7 32 -15 46 -17 30 -19 59 -5 95 15 40 52 31 63
-15z m2677 -1 c13 -46 6 -92 -16 -110 -11 -9 -18 -9 -26 -1 -6 6 -23 9 -37 6
-14 -3 -38 -1 -53 5 -24 9 -28 16 -28 48 0 21 4 43 8 50 10 15 78 40 114 42
24 1 29 -4 38 -40z m-6819 18 c15 -11 38 -78 43 -123 1 -11 10 -31 19 -44 11
-16 13 -28 7 -34 -15 -15 -12 -35 7 -54 12 -12 18 -13 21 -4 11 35 55 -19 45
-57 -3 -10 0 -22 6 -25 6 -4 11 -15 11 -25 0 -10 10 -23 23 -29 22 -11 22 -11
-5 -13 -42 -2 -46 -3 -54 -11 -4 -5 -22 -8 -40 -8 -19 0 -34 -6 -38 -15 -3 -8
-12 -15 -19 -15 -8 0 -20 -7 -27 -15 -9 -11 -29 -15 -65 -14 -41 2 -59 -3 -81
-20 -24 -19 -29 -20 -43 -7 -12 12 -12 20 -3 41 7 14 12 35 12 46 0 12 10 30
23 41 15 13 18 21 10 24 -15 6 -18 34 -4 34 5 0 11 22 15 50 4 27 15 77 26
111 11 34 20 78 20 98 0 63 49 100 91 68z m5979 -58 c0 -20 67 -80 83 -74 11
5 21 -3 33 -27 21 -41 103 -118 127 -118 9 0 17 7 17 17 0 49 95 88 107 43 4
-16 14 -20 53 -20 29 0 50 -5 52 -12 4 -12 92 -34 168 -43 84 -10 102 -13 107
-19 4 -3 11 -2 17 3 26 20 47 20 67 0 16 -16 18 -23 8 -35 -6 -8 -22 -14 -35
-14 -19 0 -24 -5 -24 -24 0 -21 4 -24 29 -20 16 3 32 1 35 -4 9 -15 -24 -37
-58 -39 -89 -6 -108 -3 -127 19 -10 13 -18 17 -19 11 0 -7 -8 -13 -18 -13 -10
0 -24 -6 -30 -12 -7 -7 -26 -14 -42 -15 -104 -5 -193 -3 -228 6 -27 8 -48 8
-66 1 -29 -11 -31 -18 -14 -55 10 -21 9 -28 -2 -35 -11 -7 -12 -14 -2 -35 15
-33 15 -36 -3 -29 -8 4 -17 -1 -21 -10 -8 -21 23 -86 41 -86 8 0 23 -10 34
-22 30 -31 85 -50 176 -58 44 -4 105 -11 135 -15 30 -3 74 -6 96 -5 26 0 48
-5 57 -15 17 -17 44 -20 49 -5 2 6 9 6 18 0 13 -8 13 -13 2 -31 -12 -18 -12
-23 0 -30 7 -5 19 -9 26 -9 15 0 15 0 -4 -39 -12 -24 -21 -31 -35 -28 -10 3
-24 -1 -30 -9 -10 -12 -9 -13 5 -8 12 4 16 0 16 -15 0 -12 -6 -22 -12 -23 -40
-5 -64 -1 -70 12 -5 11 -7 9 -7 -7 -1 -17 -7 -23 -25 -23 -13 0 -29 -6 -35
-14 -8 -10 -23 -11 -62 -5 -28 4 -64 5 -80 2 -18 -3 -29 -1 -29 6 0 14 -37 15
-45 0 -5 -6 -12 -4 -20 7 -12 17 -14 17 -38 1 -28 -18 -53 -22 -59 -9 -1 5
-15 12 -30 16 -22 5 -26 3 -22 -8 4 -11 -2 -14 -25 -14 -24 1 -31 6 -31 20 0
28 -18 58 -35 58 -8 0 -15 6 -15 14 0 7 -12 16 -26 19 -20 3 -28 0 -31 -14 -5
-19 -43 -27 -43 -9 0 6 -7 10 -15 10 -8 0 -15 6 -15 13 0 16 -29 77 -37 77 -3
0 -3 -7 1 -15 3 -8 1 -15 -4 -15 -14 0 -50 51 -50 71 0 11 -10 20 -29 24 -22
5 -31 14 -36 35 -4 16 -15 32 -26 35 -23 8 -24 21 -5 57 14 26 13 29 -6 43
-20 13 -21 16 -5 33 15 17 15 18 -4 19 -11 1 -23 -5 -26 -13 -5 -14 -34 -20
-32 -6 2 27 19 45 44 48 35 4 45 14 60 58 9 25 9 35 1 33 -6 -1 -10 8 -8 20 2
12 -1 24 -6 27 -11 6 -3 76 9 76 5 0 9 5 9 10 0 6 8 22 17 36 10 16 17 48 18
78 1 62 49 168 71 159 8 -3 14 -9 14 -14z m3410 -196 c63 -33 82 -66 60 -108
-18 -33 -52 -41 -101 -25 -57 19 -69 30 -76 72 -6 43 16 88 45 88 10 0 42 -12
72 -27z m-3912 -291 c2 -7 -9 -18 -25 -24 -34 -13 -57 -57 -50 -96 3 -17 -3
-38 -19 -61 -13 -20 -24 -43 -24 -53 0 -23 -11 -49 -19 -44 -3 2 -6 -20 -6
-51 0 -45 -4 -58 -23 -73 -13 -11 -22 -21 -22 -25 3 -17 -14 -75 -21 -75 -5 0
-9 -5 -9 -11 0 -5 5 -7 10 -4 6 3 10 1 10 -4 0 -6 -7 -11 -15 -11 -8 0 -15 -7
-15 -15 0 -13 -7 -15 -37 -9 -21 4 -45 13 -55 21 -9 8 -29 13 -45 11 -21 -2
-27 -8 -26 -23 4 -31 -17 -125 -28 -125 -5 0 -9 -8 -9 -18 0 -10 -4 -22 -8
-28 -15 -16 -35 -92 -28 -103 4 -6 4 -10 -1 -9 -17 5 -53 -28 -53 -49 0 -13
-6 -23 -13 -23 -12 0 -87 -82 -87 -95 0 -3 -15 -26 -32 -50 -18 -24 -44 -60
-58 -80 -14 -20 -37 -52 -52 -72 -16 -20 -28 -43 -28 -53 0 -9 -9 -25 -20 -35
-11 -10 -20 -22 -20 -27 0 -5 -13 -29 -30 -53 -16 -24 -30 -50 -30 -58 0 -19
-26 -40 -40 -32 -6 4 -10 -5 -10 -22 0 -36 -24 -104 -36 -104 -5 1 -12 -12
-17 -29 -4 -16 -23 -56 -41 -87 -54 -94 -116 -215 -116 -228 0 -7 -7 -18 -15
-25 -12 -10 -15 -10 -15 2 0 8 4 18 8 24 5 5 17 36 27 69 10 33 31 89 47 125
46 100 103 258 117 325 15 69 38 146 58 192 7 17 13 35 13 40 1 19 70 178 80
181 5 2 10 9 10 15 0 7 24 60 54 118 69 138 100 268 66 289 -11 7 -12 15 -1
47 7 21 20 47 29 58 25 30 94 75 105 68 12 -7 0 -113 -20 -172 -24 -72 -93
-211 -129 -261 -18 -25 -36 -58 -39 -72 -4 -15 -13 -32 -21 -39 -8 -6 -14 -17
-14 -23 0 -7 -13 -37 -29 -67 -32 -58 -34 -92 -7 -97 33 -7 161 159 245 319
29 55 111 289 111 318 0 8 -12 27 -26 42 l-27 28 42 61 c22 34 41 68 41 74 0
7 13 23 30 36 16 14 29 33 30 42 0 10 11 20 24 24 29 7 61 40 71 74 4 14 21
46 37 73 22 35 36 47 54 47 14 0 24 -6 24 -14 0 -26 21 -29 45 -6 14 13 30 20
42 16 10 -3 25 -1 33 4 19 13 42 9 48 -8z m-562 -107 c10 -8 34 -15 52 -15 21
0 32 -5 32 -14 0 -10 -16 -16 -52 -19 -96 -9 -213 -31 -220 -42 -4 -5 -5 -18
-2 -28 3 -10 -1 -20 -11 -23 -9 -4 -22 -22 -30 -40 -8 -19 -20 -34 -27 -34
-10 0 -14 -17 -16 -53 -1 -29 -6 -66 -11 -83 -5 -17 -9 -98 -9 -181 0 -91 -4
-158 -11 -171 -6 -11 -11 -33 -11 -47 0 -30 -102 -345 -125 -387 -8 -14 -15
-44 -15 -66 0 -22 -6 -45 -14 -52 -8 -6 -20 -28 -27 -48 -14 -46 -57 -139 -79
-172 -10 -14 -25 -46 -35 -72 -10 -27 -21 -48 -24 -48 -4 0 -17 -22 -29 -49
-12 -27 -26 -52 -32 -56 -14 -9 -13 -1 6 43 9 20 20 48 24 62 5 14 18 50 30
80 87 220 149 399 154 450 2 25 14 72 25 104 36 102 58 405 35 475 -6 20 -34
-6 -34 -32 0 -14 -47 -67 -136 -154 -75 -73 -140 -133 -144 -133 -5 0 -10 -12
-12 -27 -2 -18 -9 -28 -20 -28 -9 0 -27 -11 -39 -24 -18 -19 -19 -25 -8 -32
11 -7 12 -12 2 -29 -7 -11 -13 -34 -13 -52 0 -17 -7 -40 -16 -50 -12 -13 -14
-21 -6 -31 7 -8 7 -18 2 -27 -6 -8 -10 -31 -10 -51 0 -51 -18 -96 -41 -102
-15 -4 -19 0 -19 18 0 13 8 26 18 30 16 6 16 7 0 16 -12 7 -18 22 -18 47 -1
20 -5 56 -9 80 -5 26 -5 45 1 48 6 4 8 27 4 54 -5 35 -3 52 8 62 9 9 13 32 12
59 -1 32 3 48 16 57 10 7 16 18 13 23 -4 5 -1 9 4 9 6 0 11 13 11 29 0 16 7
34 15 41 8 7 15 19 15 26 0 16 33 18 61 4 16 -9 21 -7 31 15 6 14 19 25 30 25
10 0 18 4 18 9 0 4 10 19 23 32 12 14 22 31 22 39 0 10 8 14 24 12 18 -2 22 2
17 14 -3 8 -6 20 -6 25 0 14 -26 11 -40 -6 -7 -8 -23 -15 -36 -15 -17 0 -22 4
-18 15 5 11 -1 15 -18 15 -33 0 -51 -19 -36 -37 9 -11 7 -18 -5 -31 -16 -15
-17 -14 -18 18 -1 19 -3 27 -6 18 -2 -10 -9 -18 -14 -18 -11 0 -1 80 12 95 17
17 9 35 -15 35 -17 0 -26 -7 -30 -25 -4 -14 -11 -23 -17 -20 -5 4 -7 16 -3 28
6 22 6 22 -10 2 -9 -11 -20 -37 -26 -57 -6 -20 -24 -49 -40 -65 -17 -16 -33
-43 -36 -63 -4 -19 -15 -46 -26 -59 -21 -28 -58 -107 -58 -126 0 -7 -9 -19
-20 -26 -14 -10 -26 -39 -39 -90 -18 -77 -61 -156 -69 -128 -3 8 -10 17 -15
21 -7 4 -7 11 1 20 7 9 10 45 8 98 -3 59 0 90 9 104 8 10 11 24 9 31 -3 7 1
26 9 42 8 15 18 47 22 70 3 23 13 47 21 54 8 6 14 22 14 36 0 13 11 39 24 56
13 18 27 48 31 67 4 19 14 40 23 46 9 7 12 16 7 24 -7 11 -10 10 -19 -1 -6 -8
-22 -16 -36 -16 -14 -1 -26 -7 -28 -13 -2 -5 -12 -10 -23 -10 -16 0 -52 -49
-54 -72 0 -4 -10 -14 -22 -23 -12 -8 -36 -45 -54 -83 -57 -119 -66 -153 -75
-297 -4 -66 -6 -124 -4 -130 2 -5 4 -53 6 -105 1 -52 5 -102 9 -111 8 -22 -18
-41 -47 -34 -19 5 -30 21 -49 71 -13 36 -30 70 -36 76 -7 6 -13 17 -13 25 0
14 -73 93 -85 93 -9 0 -4 -45 14 -110 11 -40 22 -64 30 -62 7 1 11 -5 10 -15
-2 -10 1 -28 5 -40 4 -13 4 -33 0 -45 l-7 -22 -18 23 c-11 13 -19 29 -19 37 0
8 -7 14 -16 14 -13 0 -15 7 -11 29 5 23 3 28 -11 27 -10 0 -24 13 -34 33 -9
19 -22 39 -27 44 -6 6 -11 22 -11 36 0 13 -11 38 -24 55 -13 17 -28 51 -34 76
-13 55 -56 177 -65 187 -4 3 -7 19 -7 34 0 15 -4 31 -10 34 -5 3 -10 19 -10
35 0 16 -4 32 -10 35 -5 3 -10 14 -10 23 0 9 -9 28 -20 42 l-20 25 0 -32 c0
-18 -4 -33 -10 -33 -15 0 -12 -27 3 -33 13 -5 34 -64 40 -114 2 -12 6 -26 10
-29 4 -4 7 -19 7 -34 0 -40 29 -142 46 -161 8 -9 12 -24 8 -33 -4 -9 0 -24 9
-34 8 -9 17 -32 21 -49 15 -81 19 -93 32 -104 8 -6 14 -20 14 -31 0 -10 5 -16
10 -13 6 3 10 -3 10 -15 0 -12 5 -30 10 -41 8 -15 7 -19 -5 -19 -8 0 -15 -5
-15 -11 0 -7 11 -8 30 -4 30 6 30 6 19 -19 -7 -14 -20 -28 -30 -31 -14 -5 -17
-13 -12 -36 4 -19 1 -29 -6 -29 -7 0 -11 8 -9 18 2 9 -9 31 -24 47 -15 17 -28
35 -28 41 0 6 -13 17 -30 24 -16 7 -30 18 -30 25 0 19 -25 64 -43 78 -9 7 -19
28 -22 47 -3 19 -13 42 -21 51 -7 8 -14 24 -14 35 0 11 -5 25 -10 30 -6 6 -12
72 -13 157 -2 153 -7 168 -44 132 -21 -21 -46 -149 -40 -205 11 -98 48 -198
102 -270 14 -19 23 -40 21 -46 -3 -7 9 -18 25 -24 19 -8 28 -18 25 -27 -3 -7
1 -16 9 -19 15 -6 30 -41 27 -61 -2 -7 2 -13 7 -13 6 0 15 -9 21 -20 9 -16 8
-20 -5 -20 -8 0 -20 11 -25 24 -5 13 -16 28 -25 34 -9 5 -22 19 -28 31 -18 34
-63 59 -79 43 -22 -22 -4 -195 23 -228 16 -19 -9 -28 -27 -10 -8 9 -21 16 -27
16 -11 0 -46 66 -81 153 -8 20 -20 37 -26 37 -6 0 -11 10 -10 23 4 45 0 64
-20 84 -10 12 -22 33 -26 47 -3 14 -11 26 -16 26 -6 0 -8 -10 -5 -22 18 -71
34 -117 44 -129 7 -8 16 -33 22 -54 14 -58 40 -135 59 -175 8 -19 19 -60 23
-90 4 -30 10 -72 14 -93 5 -26 3 -46 -6 -64 -11 -21 -11 -27 -1 -30 14 -5 17
-43 2 -43 -5 0 -10 -9 -10 -19 0 -11 -6 -22 -12 -25 -10 -3 -9 -8 3 -15 11 -7
15 -19 12 -36 -6 -27 -25 -24 -21 3 2 11 -4 17 -17 18 -42 2 -45 5 -45 34 0
20 -5 30 -15 30 -8 0 -15 9 -15 20 0 10 -8 24 -17 29 -17 10 -17 12 0 25 17
13 16 15 -9 35 -22 17 -30 19 -43 9 -14 -11 -14 -11 -5 2 24 32 23 62 -2 89
-17 19 -24 37 -23 66 0 22 -4 54 -9 72 -6 18 -8 41 -5 52 3 11 -4 35 -15 53
-11 18 -18 38 -15 44 2 6 -3 16 -11 23 -24 20 -29 -4 -28 -147 0 -107 4 -142
18 -176 10 -22 23 -44 28 -48 6 -4 7 -10 3 -14 -3 -4 -13 -1 -22 6 -9 7 -17
11 -20 9 -6 -7 19 -74 34 -93 17 -21 31 -95 20 -102 -5 -3 -12 2 -16 11 -10
27 -46 62 -71 70 -21 6 -23 5 -13 -13 6 -12 16 -24 21 -27 22 -13 -2 -23 -37
-15 -49 11 -67 -3 -59 -46 5 -24 2 -33 -10 -38 -25 -9 -34 -7 -34 8 0 20 -12
26 -39 19 -19 -5 -21 -10 -15 -36 4 -19 2 -32 -6 -37 -19 -12 -4 -40 20 -40
15 0 20 -6 19 -17 -2 -10 2 -27 8 -38 6 -11 14 -42 18 -70 4 -27 14 -62 22
-77 16 -32 9 -76 -16 -97 -12 -10 -13 -15 -3 -18 6 -3 12 -8 12 -13 0 -9 -86
-8 -96 2 -16 17 -33 6 -44 -26 -8 -24 -20 -38 -42 -45 -32 -11 -49 -7 -47 12
4 32 -1 36 -30 26 -46 -16 -57 -35 -36 -59 21 -23 9 -45 -15 -30 -12 8 -12 10
5 11 14 0 11 3 -9 10 -33 9 -68 -7 -45 -21 23 -15 0 -26 -45 -24 -26 2 -46 -1
-46 -6 0 -5 -5 -21 -10 -35 -8 -21 -13 -25 -24 -16 -7 6 -16 8 -19 4 -4 -3
-13 -1 -21 6 -11 9 -20 6 -44 -19 -17 -16 -37 -30 -46 -30 -8 0 -19 -6 -23
-14 -7 -12 -18 -12 -60 -4 -42 8 -56 8 -69 -3 -23 -19 -84 -39 -121 -39 -19 0
-36 -7 -41 -16 -8 -14 -12 -12 -30 13 -19 27 -26 29 -69 27 -26 -1 -62 -5 -78
-9 -27 -6 -35 -1 -73 40 -23 25 -42 52 -42 59 0 8 -7 19 -15 26 -8 7 -15 25
-15 41 0 16 -4 29 -8 29 -4 0 -14 21 -21 47 -7 27 -17 59 -22 73 -4 14 -11 43
-13 65 -3 22 -8 55 -12 72 -4 20 -2 38 4 46 6 7 12 29 13 48 2 19 10 52 20 74
9 22 19 56 22 76 15 102 42 126 288 250 77 39 143 79 147 87 12 32 58 75 107
99 28 14 59 36 70 47 18 21 147 107 223 151 17 11 35 28 38 40 4 11 19 36 33
55 15 19 40 58 56 85 16 28 44 70 63 95 72 95 222 336 222 358 0 66 51 120
150 158 70 27 120 70 120 104 0 16 -6 31 -12 34 -7 3 8 3 34 1 55 -6 122 23
146 64 8 14 32 40 53 57 36 30 40 31 89 22 39 -7 61 -6 93 6 41 14 113 37 247
78 36 11 85 24 110 29 199 38 268 49 284 45 11 -3 27 -1 36 4 10 5 31 5 51 0
19 -5 87 -14 153 -20 65 -6 150 -20 190 -30 46 -12 106 -18 170 -18 l98 1 62
51 c66 55 140 96 196 107 63 12 135 10 156 -6z m848 -43 c13 -21 4 -149 -13
-180 -12 -23 -26 -92 -38 -187 -8 -59 -7 -76 2 -132 6 -33 4 -49 -10 -69 -9
-15 -18 -42 -19 -61 -1 -34 -1 -35 -53 -38 -29 -2 -61 -9 -73 -15 -29 -15 -43
-4 -29 23 7 12 18 26 25 30 8 4 14 15 14 23 0 8 5 12 10 9 6 -4 20 4 31 17 18
21 19 33 15 115 -7 125 25 280 85 409 10 23 19 46 19 53 0 13 26 15 34 3z
m164 -292 c12 -22 27 -40 33 -40 5 0 15 -13 22 -28 13 -31 104 -138 180 -212
26 -26 47 -54 47 -63 0 -10 6 -13 20 -10 11 3 21 1 21 -3 1 -5 3 -23 5 -41 2
-17 16 -44 31 -59 21 -21 24 -29 13 -32 -8 -2 -20 -11 -27 -20 -11 -13 -15
-12 -33 9 l-21 24 6 -38 c3 -21 16 -57 27 -78 11 -22 18 -43 14 -46 -3 -4 -6
-1 -6 5 0 7 -4 12 -10 12 -5 0 -10 -7 -10 -15 0 -8 -4 -15 -9 -15 -5 0 -11 -6
-14 -13 -4 -10 3 -12 24 -9 28 4 40 -10 19 -23 -16 -10 -12 -45 5 -45 15 0 21
-33 16 -86 -1 -14 6 -23 19 -27 12 -3 20 -13 20 -26 0 -27 -26 -27 -42 -1 -7
11 -22 20 -34 20 -19 0 -99 69 -99 87 -1 4 -16 24 -35 43 -103 105 -130 143
-130 183 0 21 -5 48 -12 60 -13 23 -18 49 -42 217 -47 319 -47 355 2 270z
m-163 -480 c17 -11 37 -20 46 -20 20 0 49 -34 75 -85 10 -21 29 -49 42 -61 12
-12 22 -26 22 -31 0 -5 14 -22 30 -38 33 -32 34 -34 20 -55 -8 -13 -12 -12
-25 8 -25 34 -44 28 -41 -13 3 -28 0 -35 -15 -35 -9 0 -19 -6 -22 -12 -2 -8
-8 -9 -13 -4 -5 5 1 15 14 23 31 21 30 63 -2 63 -17 0 -28 9 -40 33 -20 41
-41 67 -52 67 -16 0 -66 49 -60 59 10 16 -4 39 -30 45 -26 7 -33 43 -12 64 17
17 28 15 63 -8z m-4949 -118 c19 0 42 -10 56 -24 61 -57 87 -78 97 -78 19 0
12 -32 -9 -37 -11 -3 -20 -14 -20 -24 0 -12 5 -16 15 -13 8 4 15 1 15 -5 0 -6
-5 -11 -11 -11 -6 0 -17 -7 -25 -15 -9 -8 -22 -15 -29 -15 -28 0 -133 124
-115 135 14 9 13 42 -3 48 -7 2 -13 18 -15 33 -1 16 2 24 6 18 4 -6 21 -11 38
-12z m9244 -92 c0 -4 -7 -10 -15 -14 -8 -3 -20 -17 -25 -31 -5 -14 -17 -25
-27 -25 -15 0 -16 -2 -3 -10 13 -8 12 -10 -2 -10 -10 0 -18 5 -18 10 0 6 -4
10 -10 10 -5 0 -10 -9 -10 -20 0 -11 -4 -20 -10 -20 -13 0 -70 -57 -70 -70 0
-5 7 -10 15 -10 8 0 15 -7 15 -15 0 -21 -22 -19 -43 5 -9 11 -24 20 -32 20
-29 0 -15 17 25 29 55 16 60 31 11 31 -38 0 -41 2 -40 28 0 15 3 21 6 15 2 -7
9 -13 14 -13 13 0 58 52 59 68 0 15 22 16 38 0 9 -9 12 -9 12 1 0 9 9 11 29 6
23 -5 32 -2 40 14 11 19 41 20 41 1z m-5333 -622 c15 -21 16 -89 1 -86 -9 2
-12 -10 -11 -45 2 -32 -4 -62 -17 -89 -11 -23 -20 -49 -20 -57 0 -17 -25 -85
-70 -191 -15 -36 -31 -77 -34 -92 -3 -15 -13 -33 -21 -41 -8 -8 -12 -17 -9
-20 10 -9 -21 -47 -38 -47 -12 0 -19 -11 -24 -35 -8 -43 -1 -53 22 -34 14 11
18 11 21 1 3 -6 10 -9 16 -5 7 4 8 0 4 -11 -4 -10 -7 -22 -7 -27 0 -5 -16 1
-36 12 -42 23 -75 19 -53 -7 10 -13 10 -17 -2 -25 -8 -5 -17 -9 -21 -9 -5 0
-8 -9 -8 -21 0 -12 -8 -23 -20 -26 -13 -4 -20 -14 -20 -32 -1 -24 -45 -89 -55
-79 -2 2 10 33 27 68 18 36 33 71 35 80 13 69 14 90 4 90 -6 0 -49 -37 -97
-82 -47 -46 -90 -84 -95 -86 -5 -2 -9 -8 -9 -14 0 -6 -13 -26 -30 -45 -19 -21
-30 -28 -30 -18 0 8 -4 15 -10 15 -5 0 -10 -7 -10 -15 0 -8 -5 -15 -11 -15
-17 0 -3 43 42 134 48 97 60 111 94 114 34 2 135 46 181 77 43 29 46 35 103
180 24 61 51 132 62 159 10 27 19 52 19 57 0 5 14 39 31 76 17 38 41 98 53
136 21 69 27 76 43 55z m3264 -145 c11 -13 13 -64 10 -257 -1 -133 -7 -249
-12 -258 -8 -15 -24 -18 -99 -18 -125 0 -123 -2 -119 174 3 120 2 141 -11 141
-12 0 -17 -26 -26 -131 -12 -141 -22 -170 -60 -184 -39 -15 -130 -12 -143 4
-22 26 48 408 85 464 31 47 144 78 295 81 51 1 70 -3 80 -16z m-41 -683 c6
-11 17 -20 25 -20 17 0 20 -16 5 -25 -6 -4 -18 -1 -27 7 -15 12 -16 10 -10
-14 4 -15 3 -30 -3 -33 -5 -3 -10 -17 -10 -30 0 -14 -9 -29 -20 -35 -12 -6
-37 -27 -56 -46 -20 -19 -40 -34 -45 -34 -15 0 -10 -36 6 -50 8 -7 14 -24 14
-39 -2 -24 -2 -25 -6 -3 -4 23 -6 23 -23 7 -11 -10 -28 -15 -38 -13 -12 4 -25
-2 -33 -14 -8 -11 -21 -27 -29 -36 -8 -9 -15 -29 -15 -46 0 -20 -5 -30 -12
-28 -7 1 -13 -2 -13 -7 0 -21 -49 -62 -72 -60 -32 3 -88 -12 -88 -23 0 -6 7
-7 16 -4 9 3 20 4 25 1 11 -7 -12 -45 -28 -45 -20 0 -27 -42 -9 -55 22 -16 20
-32 -4 -40 -28 -9 -41 2 -34 30 7 26 -12 44 -19 18 -3 -10 -8 -39 -12 -65 -5
-36 -10 -46 -21 -41 -22 8 -54 -26 -54 -59 0 -21 -6 -31 -25 -38 -21 -8 -24
-13 -16 -29 9 -16 7 -20 -15 -24 -16 -3 -29 2 -37 13 -16 23 -87 34 -87 14 0
-8 -4 -14 -8 -14 -4 0 -7 11 -7 25 2 27 29 54 56 55 9 0 21 10 27 23 6 12 11
16 11 10 1 -16 33 -17 48 -2 6 6 9 17 6 25 -2 7 3 28 13 46 26 50 34 67 34 72
0 3 -15 6 -32 8 -36 3 -41 17 -12 33 11 5 22 14 25 19 4 5 12 -2 19 -14 12
-23 13 -23 26 -5 11 15 11 20 2 26 -10 6 -10 15 -1 40 11 28 10 34 -5 45 -16
12 -16 14 0 30 9 9 34 18 54 19 36 2 63 25 30 25 -20 0 -21 19 -1 26 8 4 15
18 15 33 0 16 8 31 21 39 16 10 18 17 10 25 -17 17 -13 27 11 24 26 -2 50 36
45 71 -5 26 5 29 24 6 10 -13 10 -17 -2 -25 -12 -8 -12 -10 1 -18 10 -7 20 -3
35 12 18 19 19 26 9 53 -14 34 -8 50 21 55 12 3 21 14 23 27 3 23 5 23 22 7
18 -17 20 -16 32 10 11 25 16 27 61 22 37 -3 53 0 73 16 l25 19 6 -21 c8 -32
26 -25 21 9 -5 35 15 41 32 10z"/>
<path d="M8212 1507 c-5 -7 -15 -72 -22 -145 -22 -216 -19 -241 23 -210 12 10
19 42 27 128 16 158 23 177 68 190 49 13 105 13 119 -1 8 -8 10 -56 6 -159 -5
-146 -5 -148 17 -155 12 -4 26 -3 30 2 5 4 10 87 12 183 l3 175 -137 2 c-95 1
-139 -2 -146 -10z"/>
<path d="M12500 6525 c0 -38 -3 -45 -20 -45 -21 0 -21 0 -26 -98 -1 -23 -9
-54 -19 -68 -28 -44 -98 -105 -112 -100 -8 3 -11 1 -8 -4 3 -6 -5 -10 -19 -10
-14 0 -26 -4 -26 -10 0 -5 -6 -10 -14 -10 -38 0 -247 -233 -285 -317 -6 -12
-21 -39 -34 -60 -13 -21 -36 -74 -50 -118 -23 -67 -27 -98 -27 -190 0 -141 20
-216 46 -174 4 6 13 48 21 92 19 112 40 153 124 244 79 86 93 94 127 82 28
-11 82 14 128 59 17 16 57 37 88 47 40 13 70 31 97 58 21 22 39 44 39 48 0 8
-29 26 -87 54 -18 8 -33 23 -33 32 0 9 22 37 49 62 59 55 84 97 71 121 -14 26
-31 129 -31 180 0 25 6 68 14 96 13 52 12 74 -4 74 -5 0 -9 -20 -9 -45z"/>
<path d="M12450 5652 c-49 -27 -58 -46 -36 -71 11 -12 29 -21 40 -21 12 0 41
-14 65 -30 24 -17 52 -30 62 -30 10 0 21 -4 24 -10 3 -5 17 -10 31 -10 13 0
24 -4 24 -10 0 -5 16 -10 35 -10 33 0 35 2 35 34 0 36 -14 55 -25 36 -8 -13
-45 16 -45 35 0 21 -54 63 -108 84 -64 25 -59 25 -102 3z"/>
<path d="M12315 5343 c-11 -3 -25 -9 -30 -14 -6 -4 -30 -11 -54 -15 -95 -15
-185 -160 -120 -194 11 -6 59 -15 107 -20 48 -5 112 -17 142 -26 30 -8 93 -20
139 -25 80 -9 85 -9 108 13 13 12 28 40 34 62 11 39 10 42 -17 61 -16 11 -40
32 -53 48 -33 35 -56 34 -73 -3 -15 -34 -48 -41 -48 -10 0 11 10 30 21 41 17
17 19 23 8 30 -8 5 -21 9 -29 9 -8 0 -28 11 -44 25 -28 24 -49 28 -91 18z"/>
<path d="M11365 4999 c-19 -18 -23 -31 -18 -45 4 -10 13 -19 18 -20 62 -3 95
-48 95 -130 0 -24 5 -44 10 -44 6 0 9 -3 8 -7 -1 -5 1 -17 4 -28 3 -11 9 -32
12 -47 4 -15 16 -37 28 -48 19 -18 20 -22 8 -45 -22 -40 -131 -62 -144 -28 -4
9 -4 35 -1 58 8 47 -2 59 -52 70 l-33 7 0 -80 c0 -43 -6 -100 -14 -125 -8 -26
-12 -57 -8 -69 4 -18 2 -20 -14 -14 -25 10 -74 14 -79 6 -2 -3 6 -24 18 -45
26 -47 57 -59 57 -23 0 13 14 38 31 56 25 27 37 32 74 32 53 0 75 -19 73 -64
-1 -18 2 -38 6 -44 3 -6 11 -55 16 -110 10 -106 14 -120 57 -196 44 -77 51
-78 122 -15 34 29 64 62 67 71 8 27 38 40 67 29 29 -11 37 -29 37 -83 0 -51
-26 -94 -84 -138 -25 -18 -46 -37 -46 -41 0 -3 21 -9 48 -13 26 -3 58 -13 72
-21 14 -8 31 -17 38 -21 8 -4 36 19 75 60 52 55 68 66 95 66 19 0 40 -8 53
-21 28 -28 24 -37 -61 -179 -28 -46 -35 -67 -27 -72 7 -4 8 -8 3 -8 -5 0 -4
-6 2 -13 7 -8 8 -26 2 -52 -15 -62 -12 -105 11 -165 14 -36 19 -68 16 -92 -3
-21 -1 -38 4 -38 5 0 9 -22 9 -49 0 -28 5 -53 10 -56 6 -3 10 -14 10 -23 0
-13 -2 -14 -9 -3 -6 9 -11 10 -15 3 -4 -6 -13 -9 -22 -5 -12 4 -15 -3 -14 -33
0 -22 0 -46 -1 -56 0 -9 7 -24 15 -35 9 -10 21 -26 28 -36 9 -12 28 -18 58
-20 l44 -2 7 40 c4 22 5 100 2 172 -4 81 -2 138 4 145 6 7 16 41 22 76 13 67
8 131 -16 197 -18 47 -33 392 -25 557 5 117 -7 182 -42 231 -15 21 -17 30 -8
39 9 9 20 4 47 -22 19 -19 35 -39 35 -45 0 -12 51 -65 63 -65 4 0 15 -7 25
-16 41 -36 121 -94 130 -94 17 0 82 -41 82 -51 0 -6 7 -9 16 -7 13 2 30 -15
40 -40 1 -1 41 -5 90 -8 109 -6 114 -8 114 -36 0 -23 0 -23 13 2 8 14 19 24
26 22 7 -1 19 2 25 8 7 5 16 7 19 3 4 -3 7 -1 7 5 0 7 9 12 21 12 15 0 19 5
17 22 -2 17 4 23 32 30 59 15 101 38 112 64 6 13 19 26 28 29 10 3 30 17 45
31 17 15 35 24 46 21 11 -3 19 -1 19 4 0 5 8 9 18 9 26 0 41 52 40 140 0 93
-4 110 -28 110 -13 0 -22 9 -26 25 -4 16 -13 25 -25 25 -21 0 -25 -20 -7 -38
20 -20 -15 -24 -66 -7 -45 15 -48 15 -77 -6 -24 -17 -33 -19 -39 -9 -6 10 -17
11 -49 3 -24 -7 -43 -7 -47 -2 -3 5 -16 9 -30 9 -14 0 -27 7 -30 15 -7 18 -45
20 -61 4 -14 -14 -70 -21 -78 -10 -2 5 -20 6 -37 2 -44 -10 -153 -1 -178 14
-24 15 -133 14 -150 -1 -13 -11 -20 -11 -40 -1 -14 7 -50 14 -81 15 -76 3 -96
-14 -109 -91 -14 -88 -53 -155 -127 -220 -22 -19 -53 -14 -53 10 0 8 8 27 18
41 10 15 19 38 20 52 0 14 6 51 13 82 15 72 6 85 -58 86 -36 1 -57 9 -91 33
-26 18 -57 32 -73 32 -34 0 -37 16 -14 71 14 32 14 43 1 92 -14 53 -14 59 7
100 15 32 26 43 37 39 9 -3 36 1 59 10 28 10 49 11 65 5 31 -11 36 -5 36 42 0
27 -4 38 -15 38 -8 0 -24 6 -35 12 -16 10 -24 10 -41 0 -14 -9 -24 -10 -33 -3
-6 5 -50 10 -96 10 -47 0 -122 2 -168 4 -78 3 -84 1 -107 -24z"/>
<path d="M15940 4753 c-41 -17 -67 -22 -100 -18 -25 3 -65 8 -90 11 -37 5 -50
2 -69 -15 -14 -12 -32 -19 -41 -16 -11 4 -21 -3 -28 -20 -17 -37 -15 -52 9
-58 14 -4 19 -11 16 -24 -3 -10 -8 -28 -12 -39 -3 -14 1 -28 11 -39 15 -15 16
-23 7 -58 -10 -36 -9 -44 13 -79 15 -24 32 -38 44 -38 12 0 32 -7 45 -16 23
-15 25 -15 31 0 3 9 4 23 0 31 -3 10 14 34 49 68 41 39 55 60 55 81 0 29 19
61 83 137 31 38 38 54 35 81 l-3 33 -55 -22z"/>
<path d="M10791 4738 c-8 -17 -26 -35 -42 -41 -15 -6 -37 -28 -49 -50 -20 -34
-21 -44 -11 -76 6 -20 12 -45 13 -56 2 -14 13 -21 38 -25 29 -4 36 -10 38 -31
2 -18 -3 -28 -15 -33 -129 -44 -131 -44 -179 -11 -37 25 -71 34 -59 15 3 -5 1
-18 -5 -29 -7 -13 -7 -22 0 -26 7 -4 7 -13 0 -24 -6 -12 -6 -21 1 -28 5 -5 18
-25 28 -43 10 -19 26 -39 37 -44 10 -6 33 -23 50 -37 41 -34 109 -65 157 -72
33 -5 43 -2 65 21 16 17 23 21 19 10 -4 -10 1 -24 10 -34 15 -15 18 -15 29 0
13 18 8 87 -7 118 -18 34 -10 121 15 164 15 27 20 47 15 60 -11 31 -1 86 21
109 11 12 20 28 20 36 0 22 -35 56 -80 79 -22 11 -40 25 -40 30 0 6 -9 10 -20
10 -11 0 -20 6 -20 14 0 28 -16 24 -29 -6z"/>
<path d="M15796 4234 c-12 -31 -7 -84 9 -84 7 0 19 -8 24 -17 6 -10 11 -13 11
-6 0 6 8 9 19 6 29 -8 104 22 107 43 5 36 -13 51 -62 52 -26 1 -52 6 -58 12
-15 15 -43 12 -50 -6z"/>
<path d="M12808 3505 c-3 -4 -26 -7 -50 -7 -26 0 -59 -10 -83 -24 -22 -12 -56
-32 -76 -43 -68 -38 -171 -153 -217 -241 -24 -46 -57 -103 -73 -126 -16 -23
-29 -50 -29 -60 0 -9 -7 -22 -15 -28 -9 -6 -18 -27 -21 -47 -5 -31 -3 -38 13
-43 24 -8 96 21 88 34 -4 6 2 13 12 17 10 3 25 12 34 20 14 12 17 11 24 -9 10
-31 6 -48 -16 -79 -18 -25 -18 -26 1 -47 11 -12 35 -24 54 -28 46 -8 133 20
141 47 7 22 21 25 28 7 4 -10 7 -10 18 0 7 6 20 12 29 12 18 0 54 35 63 63 8
23 23 22 30 -3 3 -13 11 -18 20 -14 9 3 14 11 11 18 -6 16 38 46 66 46 11 0
20 5 20 11 0 6 9 8 20 4 28 -9 85 14 96 39 5 11 25 25 45 31 51 14 72 34 66
63 -3 17 1 26 17 32 11 5 15 9 7 9 -11 1 -10 4 4 14 10 8 15 19 11 25 -3 6 1
15 9 20 16 8 25 36 44 132 7 34 6 53 -5 76 -18 37 -42 51 -114 64 -72 14 -263
24 -272 15z m113 -301 c15 -19 39 -18 39 1 0 8 8 15 19 15 20 0 47 -51 37 -69
-8 -12 -76 -12 -92 1 -18 13 -65 -8 -58 -26 5 -12 10 -13 26 -5 11 6 23 7 26
3 4 -4 1 -9 -6 -11 -7 -3 -18 -11 -26 -18 -10 -11 -16 -11 -25 -2 -9 9 -14 9
-20 -2 -6 -9 -18 -11 -33 -8 -27 7 -68 -16 -68 -38 0 -13 -56 -35 -87 -35 -7
0 -13 -3 -13 -7 0 -13 -60 -43 -84 -43 -12 0 -33 -11 -45 -24 -25 -27 -61 -24
-61 4 0 10 -3 25 -6 34 -4 10 1 18 12 23 11 4 34 21 52 39 18 18 41 36 52 39
10 3 21 12 24 20 8 22 81 64 115 67 17 1 31 6 31 10 0 4 11 8 24 8 14 0 28 5
31 10 3 6 21 10 40 10 19 0 35 6 38 14 7 17 41 11 58 -10z"/>
<path d="M11758 3259 c-41 -21 -120 -115 -116 -138 5 -26 77 -53 160 -62 43
-4 82 -10 87 -14 6 -3 20 -3 33 0 20 5 23 13 25 52 1 37 -4 53 -23 76 -13 16
-24 33 -24 38 0 5 -5 9 -11 9 -6 0 -29 13 -52 29 l-42 29 -37 -19z"/>
<path d="M11987 2574 c-3 -3 -47 -7 -97 -9 -51 -1 -95 -6 -98 -11 -10 -13 -89
-54 -105 -54 -8 0 -22 -9 -32 -20 -22 -24 -16 -25 73 -6 109 23 308 37 455 32
136 -5 168 3 110 25 -65 25 -292 57 -306 43z"/>
<path d="M5771 1757 c30 -26 74 -94 120 -189 33 -67 46 -81 53 -55 2 6 9 31
16 54 11 35 10 52 -7 120 -22 89 -23 90 -143 92 l-65 1 26 -23z"/>
<path d="M5609 1707 c-18 -12 -47 -42 -64 -66 -27 -39 -30 -50 -29 -119 0 -74
21 -142 43 -142 21 0 50 39 66 87 39 124 55 210 42 237 -15 32 -16 32 -58 3z"/>
<path d="M5693 1528 c-32 -111 -36 -134 -21 -157 15 -25 8 -32 -39 -40 l-38
-7 60 -34 c55 -31 67 -34 147 -34 59 -1 91 3 100 12 9 9 10 15 2 20 -6 4 -33
48 -59 97 -62 118 -119 215 -126 215 -3 0 -15 -33 -26 -72z"/>
<path d="M6086 696 c3 -8 -9 -25 -30 -41 -20 -15 -36 -33 -36 -39 0 -7 -18
-29 -40 -51 -21 -21 -37 -42 -34 -47 3 -4 -3 -11 -13 -14 -10 -3 -27 -10 -38
-16 -14 -8 -20 -8 -23 1 -2 6 -10 11 -17 11 -7 0 -15 4 -17 9 -1 5 -10 2 -18
-7 -13 -14 -12 -15 3 -9 11 4 17 1 17 -9 0 -8 -4 -12 -10 -9 -15 9 -12 -18 6
-55 17 -33 22 -127 12 -197 -5 -29 -3 -31 13 -23 16 9 17 7 8 -22 -5 -18 -7
-40 -4 -49 3 -9 -2 -22 -12 -30 -15 -12 -16 -12 -10 4 3 9 2 17 -3 17 -6 0
-10 -3 -11 -7 0 -5 -2 -32 -3 -60 l-4 -53 198 0 198 0 4 25 c3 14 2 28 -2 30
-10 6 -20 93 -20 185 -1 141 -75 470 -106 470 -7 0 -11 -6 -8 -14z"/>
<path d="M12198 183 c-3 -35 3 -57 19 -75 9 -10 13 -21 10 -24 -4 -4 2 -19 13
-34 11 -16 20 -33 20 -39 0 -16 207 -15 213 2 4 9 6 9 6 0 1 -7 8 -13 17 -13
10 0 14 7 12 23 -3 20 -9 22 -55 22 -29 -1 -53 2 -53 6 0 4 -10 9 -22 11 -13
2 -23 9 -23 17 0 8 -6 16 -12 19 -8 2 -13 -5 -13 -17 0 -29 -18 -26 -26 4 -3
14 -19 33 -35 42 -16 10 -29 24 -29 33 0 17 -19 40 -32 40 -4 0 -9 -8 -10 -17z"/>
</g>
</svg>
